<svg width="87" height="80" viewBox="0 0 87 80" fill="none" xmlns="http://www.w3.org/2000/svg">
<g clip-path="url(#clip0_4_47811)">
<rect width="87" height="80" fill="#26262E"/>
<path fill-rule="evenodd" clip-rule="evenodd" d="M22.4019 52.8194L12.7464 38.2858C12.7464 38.2858 11.5058 36.1603 13.0677 34.7328C14.6315 33.3047 16.5854 33.4369 19.8119 37.2427C23.0392 41.0462 25.8999 44.9971 28.5312 48.6414C31.1619 52.2833 34.8199 58.2107 34.3218 60.4614C33.8239 62.7106 31.0913 63.7071 29.6084 62.6266C28.1245 61.547 22.3397 52.7837 22.4021 52.8201L22.4019 52.8194ZM54.3527 44.814L56.0161 27.4445C56.0161 27.4445 56.1061 24.9856 54.0556 24.4632C52.0051 23.9407 50.3425 24.979 49.2921 29.8563C48.2407 34.732 47.5789 39.5654 46.9767 44.0198C46.3734 48.472 45.9441 55.4235 47.444 57.1736C48.9449 58.922 51.8222 58.513 52.6215 56.8606C53.4205 55.209 54.3899 44.7534 54.3527 44.8148L54.3527 44.814ZM55.8339 25.2401C56.0217 25.1418 56.2079 25.0864 56.3897 25.0936C57.7164 25.149 60.6624 26.718 60.6624 26.718C60.6624 26.718 61.6594 27.3472 61.5336 30.0757C61.4077 32.8035 61.1432 38.4969 61.1432 38.4969L65.9385 39.7691C65.9385 39.7691 68.5926 40.4789 68.3006 42.4428C68.0096 44.4083 65.4372 43.4201 65.4372 43.4201L60.8488 41.952C60.8488 41.952 59.9466 49.6425 59.4373 52.751C58.9282 55.8602 57.4188 58.0003 56.73 58.3807C56.0411 58.7605 54.7011 58.7591 53.6775 58.705C53.094 58.6733 52.5868 58.3885 52.1922 58.0662C52.5288 57.8073 52.8109 57.4734 53.0098 57.0617C53.5766 55.8887 53.9593 52.4281 54.1316 51.0542C54.3101 49.6327 54.4686 48.2069 54.6109 46.781C54.6592 46.3124 54.7041 45.8434 54.7463 45.3743C54.7567 45.2444 54.7693 45.1133 54.7775 44.9826C54.7816 44.9423 54.7812 44.9017 54.7776 44.864L56.4474 27.4736C56.4876 26.6798 56.2674 25.8787 55.8347 25.2408L55.8339 25.2401ZM61.8577 30.3809C62.3692 30.5766 63.047 30.9172 63.4791 31.4494C63.9293 32.0016 64.1866 35.2998 64.2155 38.9566L61.493 38.2332C61.6287 35.6196 61.7378 32.9979 61.8575 30.3803L61.8577 30.3809ZM64.1373 43.3631C64.0862 44.4867 64.0112 45.5512 63.909 46.481C63.3575 51.5418 62.625 53.1529 61.748 53.8918C61.2851 54.2817 60.1712 54.6454 59.2199 54.9038C59.4911 54.1068 59.6803 53.3476 59.7688 52.8117C60.3256 49.4207 60.7656 45.8411 61.1394 42.4042L64.1373 43.3631ZM67.8763 43.6711C67.8763 43.6711 67.1558 44.3188 64.501 43.5052C64.501 43.5052 64.5652 45.1744 64.2831 45.8663C64.2831 45.8663 67.5359 46.1414 67.8763 43.6711ZM67.6289 40.0519C67.6289 40.0519 66.8613 39.2079 65.2993 39.0275L63.0501 24.401L63.3668 23.9564L59.8582 20.246C59.8582 20.246 59.2155 20.2504 58.3286 19.6816C57.4391 19.1135 55.9648 17.5663 55.9648 17.5663C55.9648 17.5663 55.3972 17.8391 53.8118 16.5517C45.8089 10.0608 38.5911 8.56175 28.8567 10.7829C19.3325 13.1692 13.4019 18.4929 9.55255 27.6409C8.76162 29.5244 8.13228 29.5508 8.13228 29.5508C8.13228 29.5508 7.56213 31.6102 7.04687 32.5304C6.5316 33.4506 5.96101 33.7501 5.96101 33.7501L4.61636 38.6765L5.10708 38.9187L10.0194 52.878C8.72747 53.7728 8.4487 54.8796 8.4487 54.8796C8.44246 54.8132 1.39229 39.9854 1.39229 39.9854L2.21187 39.6241C-2.6639 25.8109 1.11309 16.6722 3.77277 11.9626C8.22688 4.08262 16.6719 -1.47072 25.3011 -3.37895C33.8074 -5.76544 43.876 -4.84882 51.5167 0.000224854C56.083 2.89985 63.7234 9.17845 65.9357 23.658L66.8288 23.5901C66.8288 23.5901 67.603 39.991 67.6294 40.0517L67.6289 40.0519ZM28.4473 9.1756C35.3746 7.37598 43.9821 7.93156 50.4016 11.4966C55.0985 14.1037 60.0666 19.0031 60.0666 19.0031C60.0666 19.0031 60.5206 19.4071 60.3396 19.893L63.7402 23.787C63.7402 23.787 63.252 13.7541 55.5307 5.52717C49.5304 -0.863621 40.4788 -2.41906 32.2339 -1.78733C30.0659 -1.594 27.9539 -1.23677 25.9618 -0.750972C23.976 -0.240093 21.942 0.441462 19.9383 1.29335C12.3701 4.62367 5.12172 10.2629 2.84404 18.7279C-0.0854415 29.6232 4.21274 38.7018 4.21274 38.7018L5.37744 33.6639C4.98632 33.3214 5.19798 32.7505 5.19798 32.7505C5.19798 32.7505 7.26968 26.0878 10.1813 21.5739C14.1613 15.4034 21.49 10.8548 28.4491 9.17515L28.4473 9.1756ZM11.8671 36.2551C11.6564 36.2566 11.4648 36.2959 11.308 36.3878C10.1629 37.0626 8.30586 39.835 8.30586 39.835C8.30586 39.835 7.72459 40.8596 9.12078 43.2068C10.5168 45.5533 13.435 50.4492 13.435 50.4492L9.80683 53.832C9.80683 53.832 7.80148 55.7092 8.98437 57.3035C10.1677 58.8997 11.9699 56.8154 11.9699 56.8154L15.3239 53.3573C15.3239 53.3573 19.7469 59.7136 21.6605 62.215C23.5773 64.7163 25.9169 65.8921 26.7024 65.9031C27.4909 65.9128 28.67 65.2802 29.5472 64.7498C30.0468 64.4467 30.3599 63.9565 30.5576 63.4857C30.14 63.4158 29.7313 63.2549 29.3624 62.9855C28.3095 62.2184 26.3396 59.3472 25.5393 58.217C24.7117 57.0476 23.9002 55.8648 23.1012 54.6748C22.8395 54.2839 22.5788 53.8914 22.3209 53.4975C22.2481 53.3885 22.1776 53.2782 22.1058 53.1676C22.0843 53.1336 22.0661 53.0975 22.0509 53.0627L12.3793 38.5139C11.9702 37.8327 11.7861 37.0225 11.8669 36.256L11.8671 36.2551ZM8.97892 43.6287C8.62069 44.0423 8.18174 44.6628 8.05279 45.3355C7.91802 46.0343 9.24316 49.065 10.9419 52.3033L13.0017 50.3818C11.6502 48.1407 10.3186 45.8801 8.97867 43.6281L8.97892 43.6287ZM13.0898 56.1521C13.6634 57.1192 14.2327 58.0223 14.7612 58.794C17.6333 62.9971 19.0389 64.0725 20.1611 64.3104C20.7514 64.4365 21.9082 64.2312 22.8671 64.011C22.2527 63.4359 21.7286 62.8555 21.3966 62.4249C19.3086 59.6966 17.2309 56.7478 15.2814 53.893L13.0898 56.1521ZM9.93719 58.1868C9.93719 58.1868 10.8786 58.4181 12.8356 56.449C12.8356 56.449 13.5678 57.9509 14.1409 58.4285C14.1409 58.4285 11.4022 60.2048 9.93719 58.1868ZM41.5766 -9.90781C41.5766 -9.90781 40.6588 -9.13739 40.8715 -8.28839C41.0836 -7.44188 41.7762 -6.77511 41.7762 -6.77511C41.7762 -6.77511 45.6887 -5.65291 46.5138 -5.85964C47.3389 -6.06638 48.4687 -6.22884 49.7277 -5.64328C50.9868 -5.05911 61.1798 -3.58382 67.9424 18.7404C74.7064 41.0645 67.5245 46.0456 64.3517 48.1013L64.2232 49.455C64.2232 49.455 79.3477 42.7832 69.6451 18.0743C59.943 -6.63559 50.2817 -7.81631 50.2817 -7.81631C50.2817 -7.81631 48.0705 -8.22526 47.6947 -8.79217C47.3188 -9.35907 44.1515 -10.7867 41.5766 -9.90494L41.5766 -9.90781Z" fill="#FF8E0A"/>
<path d="M47.3689 105.44C47.3782 105.448 47.3882 105.454 47.3974 105.459L47.5158 105.519C47.5396 105.535 47.5661 105.546 47.594 105.55C47.6105 105.556 47.6257 105.565 47.6396 105.574C47.6831 105.582 47.7325 105.599 47.7712 105.601C47.8776 105.604 47.9829 105.579 48.0765 105.526C47.9559 105.269 47.8773 104.995 47.8447 104.714C47.8383 104.656 47.8356 104.598 47.8358 104.541L47.8402 104.464L47.8399 104.4C47.8443 104.384 47.8482 104.361 47.8482 104.361L47.8549 104.312C47.8758 104.182 47.9085 104.053 47.9554 103.93C48.1097 103.557 48.3488 103.225 48.6533 102.962C48.824 102.799 49.0099 102.653 49.2082 102.525C49.3497 102.42 49.4545 102.38 49.5115 102.417C49.5684 102.455 49.5723 102.569 49.5283 102.743C49.4397 102.975 49.3315 103.197 49.2027 103.409C48.822 104.057 48.5754 104.891 49.2646 105.47C49.2883 105.501 49.2958 105.521 49.3185 105.531L49.3417 105.556L49.3534 105.566C49.4172 105.59 49.4847 105.607 49.5519 105.619C49.6141 105.634 49.6787 105.641 49.7426 105.64L49.8399 105.648C49.8507 105.647 49.8562 105.652 49.8732 105.656C49.8895 105.66 49.8723 105.645 49.8854 105.671C49.8907 105.666 49.8958 105.665 49.9004 105.659C49.8443 105.486 49.8124 105.308 49.8064 105.127C49.8051 104.889 49.8403 104.653 49.9096 104.426C50.012 104.075 50.1713 103.744 50.3805 103.445C50.7362 102.938 51.0916 102.751 51.1849 102.84C51.279 102.929 51.1609 103.259 51.0106 103.763C50.9227 104.045 50.8527 104.334 50.8034 104.626C50.6802 105.577 51.4276 105.636 51.8981 104.906C52.1502 104.436 52.5051 104.03 52.9364 103.719C53.3819 103.449 53.8879 103.325 54.3262 103.029C55.1651 102.428 55.8601 101.647 56.3599 100.742C57.3616 98.8439 58.0188 96.7824 58.3023 94.6536C58.3112 94.6134 58.3217 94.5746 58.3359 94.5369C58.3467 94.3644 58.4142 94.2009 58.5274 94.0716C62.1032 89.8507 62.2305 84.3233 63.6542 79.2194C63.5036 79.3622 63.3518 79.4904 63.212 79.598C62.7576 79.9447 62.4293 80.0734 62.3417 79.991C62.1614 79.7844 63.0947 78.7822 63.9567 77.4627C64.0519 77.3086 64.1364 77.1663 64.2154 77.0187C64.4074 76.1744 64.36 75.2922 64.0796 74.4719C63.5077 73.0005 62.4719 70.4975 60.3671 70.8706C58.6037 71.184 57.1194 72.1746 55.5175 72.8999C55.6828 73.4524 55.8171 74.0148 55.9185 74.5837C56.0561 74.8356 56.1771 75.0962 56.2812 75.364C56.4006 75.6663 56.5003 75.9755 56.5801 76.2907C56.6213 76.4595 56.6426 76.6416 56.6682 76.8234L56.7075 77.0968L56.7174 77.3413L56.728 77.5944L56.7327 77.7182L56.7323 77.7824L56.7328 77.8481L56.7298 77.8805L56.732 77.881C56.7195 78.0588 56.6968 78.2359 56.6638 78.4118C56.656 78.4657 56.6445 78.5185 56.6294 78.5716C56.5774 78.8396 56.5062 79.1049 56.417 79.3629C56.3153 79.6533 56.1812 79.9312 56.0189 80.1918C55.943 80.3165 55.8556 80.4334 55.758 80.541C55.6608 80.6457 55.554 80.7402 55.4375 80.8223L55.3291 80.8805C55.3831 81.011 55.4378 81.1421 55.4971 81.275C55.5665 81.4429 55.5694 81.6303 55.5046 81.7993C55.5001 81.815 55.5011 81.8266 55.4974 81.843C54.5655 85.3837 53.4293 88.9912 52.7336 92.5832C52.7052 92.7367 52.6323 92.8787 52.5241 92.9909C52.5188 92.9971 52.5193 93.0022 52.5135 93.0027C50.9415 94.9864 49.4822 97.056 48.1428 99.2054C48.0527 99.3591 47.9154 99.4788 47.7519 99.5467C47.6244 99.6788 47.4532 99.759 47.2705 99.7716C46.1137 99.897 44.728 100.636 45.0145 101.948L45.053 101.896C45.1581 101.73 45.2562 101.56 45.3768 101.398C45.5684 101.088 45.8894 100.882 46.2496 100.837C46.4666 100.852 46.5746 100.918 46.5873 100.982C46.6001 101.046 46.4857 101.12 46.3224 101.215C46.1717 101.365 46.058 101.549 45.9917 101.752C45.9343 101.897 45.8739 102.075 45.7841 102.283L45.7057 102.447C45.6887 102.486 45.668 102.524 45.6449 102.56L45.6027 102.628C45.4127 102.931 44.9354 103.204 44.8804 103.566C44.819 103.98 45.323 104.405 45.6778 104.52C45.8269 104.565 45.9835 104.578 46.1379 104.557L46.192 104.553L46.2102 104.578C46.2626 104.563 46.3119 104.569 46.3585 104.555C46.3797 104.547 46.4069 104.55 46.423 104.543C46.427 104.539 46.4333 104.537 46.4392 104.537C46.4714 104.421 46.506 104.315 46.5309 104.232C46.5555 104.154 46.5735 104.075 46.5862 103.994C46.5957 103.917 46.5978 103.839 46.5933 103.761C46.5765 103.563 46.5639 103.355 46.5631 103.158C46.5307 102.691 46.7121 102.236 47.0558 101.921C47.2842 101.718 47.5816 101.611 47.8863 101.623C48.0529 101.669 48.1536 101.725 48.1596 101.795C48.1655 101.865 48.0852 101.937 47.9254 102.015C47.7892 102.122 47.6701 102.251 47.575 102.396C47.4597 102.604 47.4245 102.848 47.4769 103.08C47.5049 103.273 47.5388 103.484 47.5672 103.689C47.5789 103.827 47.5821 103.967 47.5757 104.106C47.557 104.244 47.5271 104.38 47.4861 104.513C47.4165 104.779 47.3389 104.935 47.3185 105.08C47.2954 105.166 47.2929 105.257 47.3091 105.345C47.322 105.377 47.3426 105.405 47.3698 105.426L47.3932 105.446C47.3856 105.442 47.3776 105.44 47.3689 105.44ZM50.5635 15.0369L50.5639 15.0427L50.6065 15.0391L50.7227 15.0723L50.9814 15.1415C51.3334 15.2314 51.7291 15.3233 52.1479 15.4644C52.6569 15.6146 53.118 15.8952 53.4883 16.2769C53.5928 16.4038 53.6866 16.5411 53.7671 16.6854C53.8366 16.8358 53.8934 16.9916 53.9361 17.1522C53.9617 17.3084 53.9773 17.4663 53.9821 17.625L53.9628 17.9019C54.4223 18.0855 54.8425 18.355 55.2028 18.696C55.4994 18.9979 55.7238 19.3635 55.8589 19.7653C55.9757 20.1825 56.017 20.617 55.9788 21.0481C55.9388 21.3976 55.904 21.7575 55.8608 22.1292C55.8623 22.1473 55.8675 22.1658 55.8762 22.1819C55.8603 22.1832 55.9246 22.2478 55.9382 22.2795C56.0456 22.4055 56.1651 22.5465 56.3076 22.7023C56.4692 22.8769 56.618 23.0636 56.7538 23.2594C56.9132 23.494 57.0368 23.7515 57.1195 24.0233C57.1656 24.1808 57.1917 24.3428 57.1984 24.5073L57.1989 24.7613L57.1511 25.0194C57.1152 25.186 57.0532 25.3461 56.9707 25.4947L56.9608 25.5065L56.955 25.507C56.9451 25.5188 56.9621 25.5225 56.9677 25.5278C56.9705 25.5269 56.9736 25.5288 56.9738 25.5317L57.0752 25.707C57.1616 25.8516 57.2229 26.0092 57.2594 26.1732C57.3115 26.3331 57.3402 26.5008 57.3444 26.669C57.3812 27.3588 57.1467 28.0358 56.6908 28.5527C56.3034 28.9945 55.8815 29.3465 55.524 29.6959C55.385 29.8216 55.2682 29.9696 55.1783 30.1342C55.1283 30.2552 55.1224 30.3901 55.162 30.5145C55.2187 30.7367 55.2988 30.9533 55.3998 31.1586L55.5809 31.5112C55.686 31.0387 55.8714 30.5871 56.1294 30.1782C57.1517 28.6756 58.8927 27.8326 60.6998 27.9659C64.6158 28.38 67.6175 32.2841 68.9046 35.7776C69.9621 38.6468 70.3479 41.8009 71.0108 44.7787C71.6634 47.3195 71.5076 50.0004 70.5663 52.4466C69.3242 55.5602 67.5087 58.3874 66.2367 61.4822C65.3304 63.6743 64.9178 66.4093 63.6922 68.4599C64.7492 69.6134 65.3214 71.1323 65.2904 72.6987C65.294 72.7583 65.2926 72.819 65.2846 72.8781C65.7085 73.7291 65.925 74.6693 65.9158 75.6214C65.735 77.4423 65.3551 79.2378 64.7828 80.9751C64.3392 82.7219 64.1572 84.5116 63.7634 86.2717C63.2305 89.0534 62.147 91.6986 60.5766 94.0508C61.1346 94.4794 61.6183 94.9734 62.1727 95.4191C62.7373 95.7792 63.1725 96.3103 63.416 96.935C63.7041 98.1713 63.3044 99.3574 61.9186 99.5153C61.8611 99.5224 61.8012 99.5187 61.7447 99.5031C61.7436 99.8317 61.6473 100.152 61.4686 100.426C61.3884 100.542 61.2896 100.644 61.1761 100.728L61.0838 100.779L61.058 100.792L61.0173 100.816C60.9869 100.835 60.9566 100.854 60.9002 100.892C60.764 100.982 60.6075 101.038 60.4454 101.055C60.3142 101.067 60.183 101.044 60.0629 100.99C60.0542 101.024 60.053 101.061 60.0442 101.095C60.0005 101.315 59.9123 101.526 59.7849 101.711L59.6372 101.887L59.573 101.952L59.558 101.965L59.5181 101.99L59.4467 102.039L59.298 102.127C59.1961 102.185 59.0838 102.223 58.9673 102.237C58.8605 102.263 58.7502 102.264 58.6423 102.243C58.2905 102.205 57.9762 102.003 57.794 101.698C57.7655 101.653 57.7398 101.607 57.7175 101.558C56.853 103.234 55.3863 104.517 53.6143 105.147C53.5965 105.177 53.5779 105.206 53.557 105.234C53.3361 105.472 53.0977 105.693 52.8432 105.895C52.6086 106.066 52.2973 106.088 52.041 105.953C51.9593 106.052 51.8676 106.143 51.7677 106.225C51.5306 106.427 51.2264 106.532 50.9159 106.519C50.8185 106.519 50.722 106.495 50.6347 106.45C50.5426 106.418 50.4557 106.37 50.3785 106.308L50.378 106.303L50.373 106.303L50.2922 106.37L50.2807 106.371L50.2703 106.378L50.2446 106.391L50.1926 106.411C50.1193 106.439 50.0407 106.462 49.962 106.485C49.899 106.496 49.85 106.5 49.7865 106.506C49.6596 106.525 49.5326 106.526 49.4055 106.51C49.2901 106.503 49.1755 106.488 49.0623 106.464L49.051 106.459L49.0395 106.46L48.9733 106.434L48.9452 106.42L48.8941 106.392L48.7877 106.336C48.72 106.301 48.6572 106.254 48.6032 106.199C48.5178 106.134 48.4408 106.059 48.3741 105.974C48.251 106.124 48.086 106.235 47.9004 106.29C47.7953 106.318 47.6876 106.333 47.5786 106.333C47.4559 106.325 47.3339 106.309 47.214 106.283L47.0916 106.245L47.0589 106.236L47.0469 106.232L47.0028 106.208L46.9798 106.194L46.889 106.142C46.7477 106.07 46.6267 105.963 46.5378 105.831C46.4807 105.741 46.436 105.643 46.4055 105.54C46.1905 105.643 45.9591 105.707 45.7219 105.728C45.4877 105.742 45.2526 105.71 45.0304 105.635C44.9025 105.592 44.7811 105.531 44.67 105.455C44.568 105.375 44.472 105.288 44.384 105.193C44.1006 104.825 43.9384 104.377 43.9206 103.912C43.9049 103.735 43.9058 103.558 43.9234 103.381C43.9328 103.303 43.9501 103.225 43.9735 103.15C43.7697 103.068 43.6155 102.895 43.5575 102.682C42.8253 100.462 44.4159 98.7909 46.4086 98.2856C46.1353 97.1561 45.9382 96.0084 45.8203 94.8516C43.4459 91.7374 42.6985 88.3885 41.5033 84.7791C39.1315 84.2338 35.7355 83.1004 34.9649 80.6068C34.6691 80.4859 34.4237 80.2659 34.2712 79.9839C33.8087 78.8507 33.5706 77.6385 33.5689 76.4135C33.4024 76.3956 33.2473 76.3226 33.1262 76.2059C27.1674 70.6971 20.6549 65.5056 16.7359 58.2191C14.1401 53.5175 13.4829 47.9816 14.9038 42.8014C15.806 39.0575 17.3446 33.4575 21.4768 32.1163C23.2473 31.5438 25.2038 32.4595 26.4904 33.6649C29.0107 36.0256 29.9003 39.9036 33.5868 40.727C33.6031 40.7307 33.6206 40.7394 33.637 40.7439C34.2534 40.0819 34.9461 39.4966 35.7009 39.0002C35.6239 38.914 35.5466 38.8345 35.4696 38.749C34.6636 39.1293 33.7478 39.2013 32.8926 38.9513C31.9271 38.6347 31.0809 38.0291 30.4668 37.2154C29.8988 36.4978 29.5352 35.6387 29.4158 34.7305C29.4075 34.5041 29.3842 34.29 29.3921 34.0667C29.4079 33.8426 29.4355 33.6205 29.4749 33.3996C29.593 32.9523 29.7369 32.6531 29.8039 32.3985C29.9284 31.8973 29.8526 31.7664 29.4388 31.2657C29.2028 31.0098 29.0046 30.7208 28.8493 30.4076C28.798 30.2484 28.741 30.0897 28.6857 29.9353C28.6304 29.7808 28.6217 29.6268 28.5875 29.4727C28.4439 28.6804 28.5757 27.8631 28.9603 27.158C28.5 26.6905 28.1922 26.0946 28.0769 25.448C27.9506 24.8769 27.9009 24.2919 27.929 23.7077C27.9461 23.1747 28.0297 22.6456 28.1772 22.1329C28.2556 21.8759 28.3609 21.6274 28.4914 21.3929C28.6264 21.1522 28.799 20.9353 29.0019 20.7494C29.3344 20.4656 29.7037 20.2283 30.0992 20.0443C30.3543 19.9255 30.5951 19.7759 30.8147 19.5988C31.1124 19.3062 31.2702 18.8986 31.2478 18.4807C31.2488 18.4324 31.2509 18.3891 31.2507 18.3351C31.1027 17.9783 31.0144 17.5981 30.9888 17.2119C30.9637 16.7709 30.9864 16.3287 31.0546 15.8921C31.1142 15.4899 31.2083 15.0928 31.3352 14.706C31.3937 14.5141 31.468 14.3282 31.5582 14.1497C31.6378 13.9582 31.7401 13.7772 31.8625 13.6106C32.2818 13.0047 32.8256 12.4971 33.4585 12.1221C33.9807 11.7966 34.5403 11.5344 35.1248 11.3416C36.0639 11.0237 37.044 10.8441 38.0348 10.808C38.346 10.8028 38.6327 10.8171 38.909 10.8367C38.9134 10.8202 38.912 10.8036 38.9159 10.7813C39.0641 10.0978 39.5896 9.56176 40.2676 9.40265C41.9531 9.07905 43.6975 9.26736 45.2771 9.94495C46.3822 10.3402 47.4296 10.8841 48.3908 11.5609C48.98 11.9708 49.5019 12.4703 49.9384 13.0414C50.1938 13.3884 50.3853 13.7787 50.5042 14.1943C50.5379 14.309 50.5602 14.4261 50.5718 14.5448C50.5894 14.6667 50.5947 14.7889 50.587 14.9115C50.5828 15.0674 50.5688 15.0313 50.5635 15.0369ZM53.1468 36.498C52.7671 36.6376 52.3557 36.6689 51.9594 36.5873C51.8119 36.9203 51.647 37.2453 51.466 37.5608C51.6694 37.5435 51.8704 37.5323 52.0776 37.5249C52.427 37.1922 52.7898 36.8532 53.1468 36.498ZM68.0139 54.2386C69.29 51.5763 70.1949 49.001 69.6237 46.0066C69.1313 43.4361 68.6441 40.7558 67.9723 38.2277C67.1333 35.0581 64.7178 30.0163 60.9636 29.617C57.5799 29.26 57.5526 32.033 56.5834 34.3815C56.0261 35.6284 55.2225 36.7466 54.2201 37.6706C55.5813 37.8908 56.8626 38.4601 57.9406 39.3234C58.0426 39.2673 58.1363 39.198 58.2194 39.1157C58.5943 38.7655 58.7982 38.2678 58.7763 37.7535L58.7281 36.9304L59.5469 37.136C59.9735 37.2575 60.3872 37.4238 60.7791 37.6329C61.4184 37.9407 62.6052 38.8517 62.4561 37.5334C62.4196 37.2328 62.3891 36.9332 62.3535 36.6427L62.195 35.2821L63.4028 35.9366C63.7441 36.1237 64.0101 36.3121 64.2542 36.4585C64.4087 36.5666 64.5785 36.65 64.7589 36.7033C64.7769 36.6842 64.7895 36.6612 64.796 36.6351C64.835 36.5559 64.8679 36.4735 64.8942 36.3888C64.9149 36.2571 64.9596 36.0905 64.9676 35.9876C64.9549 35.9069 64.9764 35.835 64.9691 35.7494C64.9591 35.6576 64.9442 35.5668 64.9242 35.4773C64.8742 35.2997 64.7925 35.1329 64.6825 34.9846C64.4464 34.6761 64.16 34.4091 63.8353 34.1958C63.2981 33.8676 62.7414 33.574 62.1673 33.3154C61.7517 33.1179 61.5252 32.975 61.5431 32.8779C61.5617 32.7807 61.8331 32.751 62.3106 32.7966C62.9994 32.8665 63.6729 33.0465 64.3052 33.3301C64.7863 33.5462 65.2195 33.8569 65.5787 34.2447C66.0546 34.7664 66.2981 35.4612 66.2528 36.1675C66.2408 36.3415 66.2186 36.4573 66.1992 36.6042C66.1651 36.8021 66.109 36.9959 66.0325 37.1813C65.9437 37.4188 65.7968 37.6306 65.6053 37.7966C65.4823 37.9049 65.3397 37.9885 65.1853 38.0433C65.0374 38.0894 64.8822 38.1099 64.7276 38.1033C64.4437 38.0881 64.1664 38.0138 63.9122 37.8865C63.9139 38.017 63.9047 38.1485 63.8859 38.2778C63.8566 38.4621 63.8007 38.6421 63.7213 38.8109C63.6202 39.0232 63.4696 39.2083 63.2834 39.3512C63.2544 39.3777 63.2215 39.401 63.1867 39.4193L63.1157 39.464L63.0181 39.5205C63.0073 39.5221 62.9966 39.5245 62.9861 39.5283L62.9495 39.5424L62.8705 39.5702L62.7177 39.6102C62.5399 39.6465 62.3575 39.6547 62.1764 39.6351C61.8962 39.6041 61.6221 39.5325 61.3622 39.4232C60.9488 39.2517 60.5481 39.0507 60.1639 38.8213C60.057 38.7603 59.9493 38.6986 59.8422 38.6434C59.6293 39.2325 59.215 39.7255 58.674 40.0357C59.2058 40.7199 59.5758 41.5171 59.7548 42.3671L59.8929 41.3332L60.7824 42.1665C61.0196 42.3932 61.2448 42.6325 61.4565 42.8831C61.7652 43.2249 62.153 43.8636 62.6096 43.467C62.8948 43.2157 62.9255 42.6882 63.0696 42.3569L63.4984 41.3852L64.2194 42.1416C64.5919 42.5319 64.8447 42.8572 65.1213 43.1279C65.2746 43.2989 65.4627 43.4355 65.6719 43.5294C65.6616 43.5361 65.6411 43.543 65.6362 43.5536C65.6313 43.565 65.648 43.5643 65.6737 43.5504L65.7363 43.5181C65.7419 43.5235 65.7775 43.4985 65.8079 43.4799C65.883 43.4063 65.9438 43.3179 65.9848 43.2195C66.0892 42.969 66.159 42.7046 66.1934 42.4345C66.3372 41.3395 66.2756 40.6147 66.4601 40.572C66.619 40.5263 67.019 41.1903 67.1327 42.4677C67.1626 42.8456 67.1295 43.2244 67.0341 43.5902C66.9661 43.8413 66.8473 44.0763 66.6859 44.2798C66.581 44.4041 66.4579 44.5109 66.3199 44.5979L66.2592 44.6359C66.226 44.6555 66.1919 44.673 66.1561 44.6877C65.7323 44.8632 65.2505 44.8275 64.8556 44.5924C64.6225 44.4654 64.4041 44.3139 64.2039 44.1389C64.1226 44.0706 64.052 44.0007 63.9763 43.9312C63.9312 44.0328 63.8865 44.1389 63.826 44.2477C63.7193 44.4626 63.5835 44.6603 63.4236 44.8382C63.3076 44.9693 63.1694 45.0781 63.015 45.1599C62.96 45.1879 62.9022 45.2089 62.8424 45.2227L62.7526 45.2523L62.7055 45.2621L62.5872 45.2722C62.5714 45.2735 62.4427 45.2728 62.4427 45.2728C62.3308 45.2633 62.2209 45.2442 62.113 45.2146C62.038 45.1947 61.9651 45.1666 61.896 45.1309C61.7809 45.0764 61.6708 45.0113 61.5671 44.9369C61.3992 44.8161 61.2416 44.6806 61.0969 44.533C60.8562 44.2826 60.631 44.0177 60.4215 43.7413C60.4194 43.7334 60.4144 43.7258 60.4081 43.7205C60.2856 43.8083 60.1412 43.8622 59.9913 43.8757C60.0807 45.4327 60.0312 46.9949 59.8431 48.5425C59.4988 52.082 59.0306 55.6328 58.4668 59.1537C58.6218 59.5238 58.7557 59.903 58.8802 60.2816C58.8826 59.9945 58.8914 59.7127 58.9148 59.4245C58.9711 58.7538 59.1066 58.0918 59.3168 57.4527C59.5048 56.8877 59.7259 56.3345 59.9779 55.7954C60.441 54.7821 60.8691 53.9295 61.1557 53.1904C61.7473 51.7231 61.7636 50.7105 61.9822 50.692C62.0781 50.6838 62.1967 50.9336 62.2704 51.4246C62.3443 52.1148 62.2982 52.8123 62.1339 53.4863C61.8962 54.4505 61.5858 55.3961 61.2061 56.3132C61.0239 56.8193 60.8194 57.3361 60.6717 57.8728C60.5149 58.4118 60.4086 58.9648 60.3544 59.5235C60.2825 60.6613 60.3026 61.8029 60.4128 62.9376C60.4335 63.0439 60.4422 63.1461 60.4556 63.253C60.5145 62.9888 60.5833 62.7289 60.6467 62.4584C60.729 62.1441 60.8305 61.8346 60.9501 61.5324L61.0331 61.3034L61.0773 61.1909L61.1116 61.0909L61.1395 61.0345C61.2084 60.8877 61.2769 60.7359 61.3377 60.5796C62.4383 58.144 63.4994 56.0619 64.1081 54.48C64.7247 52.9404 65.0103 51.8553 65.2297 51.9067C65.3958 51.9466 65.4862 53.01 65.0872 54.7859C64.4786 56.9848 63.6673 59.123 62.6637 61.17C62.601 61.3213 62.5328 61.468 62.4647 61.6147L62.4425 61.6706L62.4381 61.6871L62.3944 61.8047L62.3109 62.0279C62.1928 62.3132 62.0912 62.6051 62.009 62.9027C61.9412 63.1734 61.8551 63.4348 61.7912 63.7002C61.7501 63.9687 61.7083 64.2373 61.6706 64.4945C61.6432 64.7444 61.6341 64.997 61.6425 65.2489C61.6374 65.3691 61.749 65.4852 61.7481 65.6028L61.7428 65.6084L61.6935 65.6615L61.6808 65.7596L61.6864 65.9541C61.7076 66.1516 61.7532 66.3463 61.822 66.5325C61.8958 66.708 61.9787 66.8798 62.0706 67.0465C62.1758 67.2157 62.2866 67.3742 62.3966 67.532C62.7906 66.518 63.1194 65.4797 63.3812 64.4235C63.8157 63.2024 64.2723 61.9838 64.7809 60.7885C65.7367 58.5375 66.9581 56.4418 68.0139 54.2386ZM61.9541 69.4393C62.2814 69.5802 62.5921 69.7567 62.8809 69.9665C62.4783 69.4101 61.8681 69.0422 61.1902 68.9472C59.6236 68.773 58.0385 68.9114 56.5259 69.3546C56.3747 69.8581 56.2037 70.3501 56.0154 70.8268C57.9112 69.8158 60.0432 68.6227 61.9541 69.4393ZM57.7095 53.0753C58.0791 49.8249 59.275 45.331 57.989 42.1761C56.7162 39.0383 52.8957 38.8001 50.035 39.4003L49.9925 39.4039C49.8482 39.6213 49.6857 39.8461 49.5059 40.0724C48.6852 41.1862 47.8574 41.9596 47.6615 41.8091C47.4656 41.6578 47.9386 40.6933 48.7146 39.6264C48.4003 39.7152 48.0765 39.7683 47.7509 39.7843C47.2137 39.7372 46.8703 39.6204 46.8502 39.444C46.8302 39.2675 47.13 39.0683 47.6314 38.8913C48.1573 38.659 48.6488 38.3558 49.0952 37.993C49.3559 37.735 49.6 37.4617 49.8276 37.1736C52.1899 33.2398 51.3001 28.6532 50.8744 24.2155C50.5922 21.2206 47.4417 19.7362 44.7214 20.5347C43.356 20.9318 42.2152 20.3045 40.8729 20.4785C40.7952 20.5136 40.7106 20.5354 40.6255 20.5426C35.8116 21.0336 34.9163 23.6729 34.5864 27.8932C34.5785 28.0574 34.614 28.2179 34.6079 28.3345C34.6018 28.4511 34.5756 28.5271 34.5195 28.5589C34.4633 28.5907 34.3843 28.5587 34.2921 28.4913C34.1606 28.3967 34.0583 28.2703 33.9927 28.1225C33.942 28.0298 33.8941 27.9199 33.8411 27.8003C33.8048 27.6895 33.7681 27.5736 33.7362 27.4464C33.7286 27.4258 33.7264 27.399 33.7195 27.3777C33.2815 28.0538 32.9806 29.0693 33.6227 29.4097C33.9225 29.5616 34.0926 29.8874 34.047 30.222C34.1557 31.7489 34.0831 33.4327 34.6942 34.8622C35.1771 35.9192 35.8479 36.8799 36.6735 37.696C36.7078 37.7142 36.7468 37.7379 36.7811 37.7569C36.8879 37.7902 36.9864 37.8475 37.0697 37.9215C37.1151 37.9505 37.1556 37.9741 37.206 38.0026C37.8619 38.3689 38.5477 38.6778 39.2562 38.9264C39.761 39.1215 40.1947 39.1985 40.2102 39.3812C40.224 39.5436 39.8795 39.7984 39.1381 39.8191C38.4993 39.8245 37.8652 39.6973 37.2765 39.4466C37.2774 39.4575 37.273 39.4739 37.2744 39.4899L37.2645 39.5016C37.2817 39.7645 37.1445 40.0134 36.9124 40.1368C34.0725 41.7172 32.2392 44.6517 32.0554 47.909C31.7753 51.7153 32.9423 55.4885 35.321 58.4659C36.4864 60.0227 37.6864 61.5357 38.9983 62.9683C39.697 63.5989 40.2524 64.3723 40.6281 65.2369C41.7265 68.288 43.5034 71.0472 45.8223 73.3045C46.3095 72.0709 47.2051 71.0434 48.3582 70.3957C48.4132 70.3677 48.4701 70.3446 48.5296 70.3264C48.5443 70.2434 48.5698 70.1667 48.5839 70.0765C48.609 69.9276 48.633 69.7744 48.658 69.6153C48.6613 69.5939 48.6648 69.5666 48.6676 69.5393C48.6714 69.0542 48.6251 68.5704 48.5288 68.0953C48.2424 66.7515 47.8193 65.4405 47.2643 64.1844C47.1107 63.8295 46.9453 63.4646 46.7668 63.1177L46.6315 62.8583L46.4749 62.6066C46.3735 62.4298 46.261 62.2605 46.1362 62.1002C46.051 61.9775 45.9523 61.8508 45.8463 61.7241L45.7488 61.7813L45.6298 61.4504C45.2177 60.978 44.8334 60.4814 44.4798 59.9631C44.1982 59.5301 43.9787 59.0588 43.8283 58.5634C43.6837 58.1267 43.5722 57.704 43.4446 57.2877C43.187 56.4715 42.925 55.7308 42.6202 54.9997C42.4764 54.633 42.3226 54.2839 42.1653 53.9461C42.0911 53.7743 42.0173 53.6068 41.9443 53.44L41.8383 53.211L41.7217 52.9756C41.4037 52.3368 41.1115 51.7454 40.8448 51.2052C39.8002 49.0438 38.9857 47.8201 39.1461 47.6823C39.2653 47.5634 40.3956 48.6391 41.6833 50.7287C42.0121 51.2469 42.3512 51.8167 42.7107 52.4315L42.8432 52.6656L42.9843 52.9244C43.0682 53.0904 43.1583 53.2616 43.2433 53.4325C43.4273 53.7687 43.6031 54.1269 43.7694 54.5026C44.0592 55.1168 44.3329 55.8068 44.5811 56.5056C44.7173 56.4071 44.8613 56.3139 45.0141 56.2235L45.0133 56.2221C45.7321 55.85 46.5312 55.6616 47.34 55.6724C47.9319 55.671 48.2986 55.737 48.32 55.86C48.342 55.9822 47.9942 56.1468 47.4369 56.3081C46.7518 56.4708 46.0856 56.7092 45.4522 57.0178C45.2469 57.1324 45.0531 57.2627 44.8704 57.3863C44.9461 57.6449 45.0281 57.9088 45.1197 58.1653C45.212 58.448 45.334 58.7216 45.4845 58.9783C46.0927 58.7835 46.7226 58.6649 47.3599 58.6246C47.9599 58.5897 48.3362 58.6234 48.359 58.7295C48.3818 58.8356 48.0498 59.015 47.4797 59.2131C47.0475 59.3251 46.5429 59.5249 45.9777 59.7299C46.1616 59.9793 46.3655 60.2328 46.5751 60.4852C47.7084 60.1435 48.5289 60.2322 48.531 60.378C48.5453 60.5455 47.9203 60.7227 47.0538 61.1096C47.1208 61.1966 47.1814 61.2776 47.2426 61.3644C47.3745 61.5489 47.4946 61.7401 47.6031 61.939L47.7789 62.238L47.9284 62.5443C48.1186 62.9443 48.2755 63.3376 48.4271 63.7197C48.6642 64.3552 48.871 65.0013 49.0437 65.6575C49.0491 65.5927 49.0603 65.5363 49.0664 65.4715C49.2947 63.7211 49.6326 61.816 49.768 59.8626C49.7857 59.3705 49.8441 58.9201 49.817 58.4136C49.8122 58.1687 49.8081 57.9237 49.8032 57.6788L49.8028 57.4949L49.7901 57.3448L49.7648 56.979C49.7299 56.5001 49.6953 56.0328 49.6817 55.5573C49.6682 55.0817 49.6419 54.6356 49.656 54.1694C49.6701 53.7031 49.6587 53.2441 49.7145 52.84C49.7353 52.6324 49.755 52.4277 49.7759 52.2288L49.8099 51.9281L49.8242 51.7808C49.8324 51.6889 49.8471 51.665 49.8522 51.6054C49.9917 50.8452 50.2289 50.1066 50.5597 49.4082C51.1596 48.1672 51.7467 47.2791 52.0687 46.6407C52.412 45.9953 52.599 45.6056 52.6942 45.6406C52.7725 45.6727 52.765 46.0894 52.5632 46.8257C52.3697 47.5832 51.8983 48.576 51.4473 49.7824C51.2123 50.4193 51.0527 51.0805 50.9691 51.7549C50.9636 51.7926 50.9596 51.8309 50.9577 51.869L50.9488 52.0209L50.9365 52.3199C50.9267 52.5207 50.9176 52.7303 50.9073 52.9341C50.8866 53.3484 50.8885 53.7637 50.9106 54.1779C50.9076 54.587 50.9457 55.035 50.979 55.487C51.0116 55.9391 51.0458 56.4005 51.0922 56.8784L51.1411 57.4532L51.1451 57.6369C51.1549 57.8813 51.1598 58.1262 51.1646 58.3711C51.1948 58.8548 51.1446 59.4008 51.1259 59.9324C50.9491 61.8529 50.6748 63.7621 50.3038 65.6539C50.1563 66.5163 50.0107 67.3339 49.9198 68.0937C49.8932 68.285 49.8655 68.4714 49.8435 68.6572L49.8232 68.7947L49.7992 68.9647L49.7523 69.2337C49.5023 70.591 48.6 71.4459 47.9168 72.5861C47.6139 73.074 47.3737 73.5989 47.2017 74.148C47.1044 74.4556 47.0768 74.7813 47.12 75.1011C47.1497 75.2621 47.4661 75.7536 47.4427 75.8636C47.4725 75.71 47.5144 75.5706 47.5558 75.416C47.6979 74.9936 47.9075 74.5968 48.1775 74.2432C48.3248 74.0452 48.491 73.8632 48.6745 73.6979C48.7869 73.6182 48.8982 73.5431 49.0099 73.4635L49.0501 73.433C49.0706 73.4262 49.1332 73.3931 49.1332 73.3931L49.1537 73.3863L49.2377 73.3572L49.3952 73.2957C50.045 73.0864 50.7554 73.3071 51.1755 73.8481C51.5047 74.2772 51.614 74.8366 51.4703 75.3592C51.5133 75.3607 51.5515 75.3574 51.6057 75.363C51.861 75.418 52.0773 75.5865 52.1932 75.822C52.2815 76.0057 52.3157 76.2116 52.2923 76.4144C52.2818 76.4795 52.2707 76.5455 52.2599 76.6062L52.4256 76.4622C52.6068 76.3117 52.7328 76.247 52.7819 76.2866C52.831 76.3255 52.8027 76.463 52.7075 76.6763C52.6496 76.806 52.5848 76.9327 52.5139 77.0556C52.4118 77.1883 52.2857 77.3451 52.146 77.5139C51.8626 77.8461 51.518 78.1682 51.2237 78.5604L51.1109 78.6949C51.0756 78.7409 51.0456 78.7902 51.0218 78.8433C50.9862 78.9282 50.961 79.0172 50.947 79.1089C50.9338 79.175 50.936 79.2434 50.9531 79.3084C50.9703 79.323 50.9485 79.3146 50.9779 79.3443C51.0306 79.3997 51.1019 79.4695 51.0934 79.4374C51.2345 79.4823 51.3883 79.4634 51.5139 79.3848C51.7343 79.2851 51.9407 79.158 52.1282 79.0056C52.319 78.8484 52.4993 78.6871 52.6629 78.5264L52.7232 78.4673L52.7539 78.4435L52.7543 78.4486L52.7735 78.4258C52.8078 78.3849 52.866 78.3099 52.866 78.3099C52.9334 78.2224 53.0138 78.1338 53.0599 78.0605C53.1059 77.9872 53.1687 77.8877 53.2209 77.8015C53.2532 77.7286 53.2832 77.6451 53.3228 77.5475C53.3583 77.4598 53.399 77.3746 53.4464 77.2917C53.5163 77.166 53.6162 77.059 53.7366 76.9801C53.9224 76.8665 54.1512 76.8492 54.3524 76.9336C54.4882 76.9936 54.6079 77.0849 54.7006 77.2019C54.7391 77.2358 54.7717 77.2776 54.796 77.3237C54.8409 77.3907 54.8796 77.4612 54.912 77.5351C54.9589 77.6501 54.9888 77.7717 55.0008 77.8955C55.0394 78.3244 54.9765 78.7554 54.8173 79.1552C54.7528 79.3454 54.6748 79.5309 54.5847 79.7101C54.5383 79.7958 54.4918 79.8815 54.4439 79.9674L54.42 80.0023C54.4467 80 54.4681 80.004 54.4955 80.0017C54.5131 79.9951 54.5289 79.985 54.5408 79.9708C54.7727 79.7584 54.9539 79.4977 55.0736 79.2057C55.2504 78.8234 55.3615 78.4131 55.4014 77.9936C55.5058 76.5297 55.1521 75.0688 54.3896 73.8165C53.3345 71.8561 54.4476 70.6694 54.9976 68.7557C55.4992 66.7857 55.8999 64.7905 56.1983 62.7793C56.7832 59.5844 57.3398 56.3133 57.7095 53.0753ZM55.8773 24.5546C55.881 24.4951 55.8744 24.4344 55.8579 24.3774C55.8161 24.2356 55.753 24.1008 55.672 23.977C55.5727 23.8248 55.4616 23.6802 55.3396 23.5446C55.214 23.3917 55.0686 23.2274 54.925 23.0337L54.8064 22.8438C54.7618 22.7716 54.7262 22.6951 54.7005 22.6148C54.6412 22.4468 54.6152 22.2694 54.624 22.0912C54.6299 21.9725 54.6431 21.8538 54.6643 21.7366L54.7046 21.458C54.732 21.2768 54.7557 21.1017 54.7786 20.9267C54.8156 20.6535 54.8022 20.3757 54.7401 20.1065C54.6746 19.8748 54.5569 19.6614 54.3971 19.4815C54.028 19.1222 53.5863 18.848 53.1017 18.6775C52.6285 18.4856 52.1476 18.3498 51.6991 18.2017C51.2507 18.0536 50.8465 17.9223 50.476 17.8026C49.865 17.6056 49.2713 17.3553 48.703 17.0539C47.8271 16.561 47.5586 16.1889 47.6069 16.1249C47.6742 16.0279 48.0458 16.2285 48.9343 16.537C49.3773 16.6885 49.9616 16.8447 50.7034 17.0248C51.0828 17.1122 51.4937 17.2029 51.9441 17.3143C52.1254 17.3529 52.3172 17.3964 52.5102 17.445C52.4951 17.3696 52.4594 17.2997 52.4066 17.2428C52.1989 17.0561 51.9519 16.9194 51.6833 16.8436C51.3619 16.73 50.9993 16.6426 50.619 16.545L50.3326 16.4664L50.1724 16.4106C50.0869 16.3872 50.0031 16.3586 49.921 16.324C49.5916 16.184 49.2659 16.0277 48.967 15.8692C49.011 15.6865 49.0594 15.5043 49.1035 15.3217L49.1722 15.045L49.1804 14.8931C49.1858 14.8372 49.1826 14.782 49.1721 14.7267C49.1665 14.6695 49.1558 14.612 49.1409 14.5563C49.0681 14.3069 48.9536 14.0714 48.8021 13.8608C48.4566 13.4032 48.0467 12.9993 47.5863 12.6595C46.734 12.0347 45.8075 11.5192 44.8282 11.1257C43.4914 10.4917 42.0153 10.2112 40.5411 10.3117C40.5263 10.3181 40.5157 10.3299 40.5003 10.3364C40.389 10.4115 40.2407 10.5044 40.099 10.6158C40.0312 10.6639 39.9707 10.7216 39.9197 10.788C39.9695 10.8188 40.0226 10.8449 40.0774 10.8658C40.1871 10.9171 40.3023 10.9562 40.4209 10.9834C40.7084 11.0582 41.0007 11.113 41.2964 11.147C41.6117 11.1903 41.9372 11.2166 42.2879 11.2306C43.462 11.2666 44.6087 11.5962 45.6241 12.1911C46.1698 12.5171 46.6545 12.9373 47.054 13.4327C47.3237 13.7682 47.5313 14.1506 47.667 14.5596C47.7338 14.8402 47.748 15.0076 47.6913 15.0336C47.634 15.0596 47.5207 14.9401 47.346 14.7059C47.1116 14.409 46.8547 14.1308 46.5799 13.8716C45.7367 13.1226 44.7207 12.5972 43.6239 12.3422C43.8979 12.5226 44.1538 12.7293 44.3876 12.9591C44.8726 13.4596 45.2663 14.0409 45.5507 14.6775C45.6933 15.0209 45.9104 15.3281 46.1872 15.5761C46.3491 15.669 46.5386 15.7011 46.7215 15.6658C46.8644 15.6376 46.9512 15.6412 46.9815 15.6817C47.0118 15.7214 46.9757 15.8019 46.8466 15.9319C46.6009 16.136 46.2685 16.1986 45.9664 16.0979C45.5035 15.8905 45.1158 15.5431 44.8591 15.1042C44.6941 14.8729 44.5384 14.6226 44.358 14.4058C44.1581 14.157 43.9352 13.9277 43.6918 13.7221C43.0838 13.2102 42.3556 12.8647 41.5774 12.7169C41.1146 12.6227 40.6408 12.6045 40.1729 12.6625C39.6594 12.7157 39.1632 12.8776 38.7175 13.1382C38.2122 13.4162 37.7981 13.8347 37.5239 14.3435C37.2497 14.8523 37.1273 15.43 37.1713 16.0074C37.1956 16.1565 37.2321 16.303 37.2784 16.4466C37.3379 16.5824 37.4084 16.7108 37.4794 16.8456C37.6575 17.1116 37.8889 17.338 38.1597 17.5077C38.4557 17.6994 38.8285 17.8458 39.2906 18.0774C39.7143 18.2933 40.0919 18.5897 40.403 18.951C40.4713 18.9174 40.5435 18.8952 40.6181 18.8838C41.0335 18.7798 41.4656 18.7599 41.8888 18.8247C41.8522 18.7789 41.8157 18.7338 41.781 18.6929C41.6234 18.4114 41.3867 18.1825 41.1003 18.036C40.4799 17.7617 39.5095 17.4302 39.1188 16.569C38.9143 16.198 38.833 15.7713 38.8859 15.3506C38.9031 14.9293 39.0577 14.5256 39.3259 14.202C39.6062 13.9022 39.9964 13.7318 40.4053 13.7314C40.7232 13.7277 41.0395 13.7738 41.3432 13.8677C42.1753 14.1358 42.9646 14.5243 43.6859 15.0207C44.1932 15.3565 44.4534 15.5717 44.4259 15.6237C44.3976 15.675 44.0713 15.572 43.5243 15.3323C42.7759 14.9805 41.9965 14.6993 41.1963 14.4913C40.7195 14.3858 40.1288 14.3761 39.9115 14.6918C39.6663 15.1565 39.6532 15.7118 39.876 16.1886C40.0165 16.4394 40.2264 16.6436 40.481 16.776C40.6223 16.8574 40.7706 16.9266 40.9237 16.9836C41.1023 17.0597 41.2868 17.1368 41.4651 17.2085L41.7868 17.3863C41.8838 17.4598 41.9885 17.5371 42.0806 17.6212C42.2338 17.782 42.3761 17.9517 42.5068 18.1311C42.6956 18.4115 42.9458 18.6457 43.2377 18.8151C43.3869 18.8864 43.5415 18.9456 43.6995 18.992C44.0507 18.9614 44.3998 18.9062 44.7433 18.8281C44.6821 18.8004 44.6152 18.7733 44.5534 18.7471C43.9362 18.4776 43.3387 18.1655 42.7651 17.8113C42.4867 17.6378 42.2301 17.4304 42.0015 17.1943C41.7951 16.9797 41.346 16.3206 41.5569 16.015C41.8763 15.533 43.111 15.872 43.5106 16.076C43.8707 16.2622 44.2129 16.4843 44.5307 16.7362C45.0379 17.1311 45.3243 17.3287 45.2972 17.3953C45.2702 17.4618 44.9122 17.3528 44.3368 17.0447C43.8465 16.7885 42.974 16.3275 42.4177 16.4828C42.4709 16.7923 42.9046 17.0139 43.1591 17.1616C43.7176 17.4675 44.2934 17.7383 44.8858 17.972C45.2039 18.1085 45.52 18.2203 45.885 18.3952C45.9396 18.4212 45.9922 18.4511 46.043 18.4847L46.1 18.5229L46.1125 18.5328C46.4236 18.5006 46.7385 18.5212 47.0432 18.5939C46.8512 18.4116 46.6893 18.1991 46.564 17.9644C46.4788 17.7906 46.4279 17.6022 46.4144 17.4091C46.4039 17.2859 46.4143 17.22 46.4459 17.2071C46.4774 17.1935 46.5247 17.2545 46.5881 17.3586C46.6653 17.5068 46.7599 17.6448 46.8681 17.7728C47.2754 18.223 47.7863 18.5665 48.3566 18.7728C49.2349 19.0968 50.1414 19.3344 51.065 19.4837C51.1966 19.5105 51.3328 19.531 51.4701 19.5573C51.6075 19.5836 51.7556 19.6258 51.8989 19.6618C52.207 19.7488 52.5075 19.8649 52.795 20.0076C53.4628 20.2918 54.0045 20.8109 54.3183 21.4683C54.5057 21.9379 54.5016 22.4624 54.3065 22.928C54.2002 23.1896 54.0516 23.433 53.8671 23.6465C54.155 23.9484 54.3588 24.3209 54.4595 24.7271C54.561 25.255 54.4629 25.8022 54.1829 26.2597C53.7141 27.0179 53.2701 27.5543 53.013 28.0682C52.9363 28.2084 52.8732 28.3546 52.8236 28.5063C53.0257 29.62 53.1074 30.7521 53.0678 31.8835C53.0057 32.9999 52.8083 34.1046 52.4807 35.1728C52.545 35.1607 52.6083 35.1444 52.6705 35.1238C52.9168 35.0298 53.1502 34.9049 53.3653 34.7515C53.8092 34.4531 54.1998 34.0819 54.5207 33.6531C54.6183 33.5104 54.6647 33.3386 54.6522 33.1659C54.6372 32.9547 54.5826 32.7483 54.4922 32.5567C54.3626 32.2969 54.2335 32.0428 54.109 31.7833C53.9555 31.4729 53.8389 31.1447 53.7623 30.8067C53.6687 30.381 53.7143 29.9354 53.8919 29.5377C54.0563 29.2156 54.2781 28.9274 54.5468 28.687C54.9699 28.2882 55.3617 27.9577 55.6513 27.6301C55.8708 27.3917 55.9901 27.0771 55.9835 26.752C55.9888 26.6779 55.9767 26.603 55.949 26.5338C55.9393 26.4623 55.9132 26.3944 55.8725 26.3344L55.8263 26.2354L55.7355 26.1248L55.6813 26.0593L55.5735 25.9276L55.3525 25.6696L55.2932 25.6046C55.275 25.5791 55.2516 25.5599 55.2822 25.5354L55.3886 25.4023C55.519 25.2277 55.6654 25.0517 55.795 24.8589C55.8287 24.8115 55.8518 24.7584 55.863 24.702C55.8689 24.6774 55.8756 24.6534 55.8837 24.6294L55.8773 24.5546ZM61.8206 98.3974C63.0286 98.2517 62.1588 96.8647 61.6549 96.449C61.0486 95.9647 60.5254 95.382 59.8988 94.933L59.8843 94.9503C59.5616 97.0512 58.9338 99.0924 58.0201 101.009C58.1038 101.105 58.2055 101.183 58.3192 101.238C58.5717 101.336 58.8535 101.387 59.0195 101.118L59.0502 101.034L59.0484 101.013C59.0532 101.001 59.0568 100.985 59.061 100.973C59.0807 100.941 59.0944 100.906 59.1007 100.868C59.1109 100.817 59.1248 100.767 59.1417 100.718C59.1475 100.658 59.1588 100.603 59.1654 100.553C59.2005 100.333 59.2087 100.105 59.224 99.9089C59.3012 99.0481 59.6647 99.4012 60.1765 99.6279C61.0714 100.029 60.8206 98.659 60.6243 98.1179C60.5545 97.9289 60.4729 97.7899 60.4248 97.6859C60.3339 97.5739 60.2736 97.4878 60.3006 97.4212C60.3277 97.3547 60.4205 97.3183 60.5836 97.3315C60.8354 97.3969 61.0593 97.5436 61.2212 97.7482C61.3927 97.9614 61.5209 98.2053 61.5999 98.468C61.6669 98.4272 61.7426 98.4033 61.8206 98.3974ZM58.9436 67.2685C58.5174 65.7416 58.2442 64.1689 57.8705 62.6266C57.6046 64.1904 57.3543 65.9209 56.9747 67.6089C57.6246 67.4602 58.2819 67.3466 58.9436 67.2685ZM52.9595 23.3541C53.4226 22.9899 53.6284 22.3854 53.4852 21.812C53.2472 21.3621 52.8646 21.0062 52.399 20.8026C52.1668 20.6851 51.9264 20.5844 51.6797 20.5017C51.5522 20.4636 51.4208 20.4309 51.2927 20.3937C51.1653 20.3563 51.0236 20.3297 50.8928 20.3035L50.7603 20.2659C51.4903 20.7098 52.0128 21.429 52.2108 22.2628C52.5555 23.9762 52.4659 25.7091 52.6771 27.4331C52.9108 26.9423 53.2375 26.4276 53.5161 25.9016C53.6794 25.6008 53.728 25.2499 53.6531 24.9153C53.5262 24.5508 53.2949 24.231 52.9881 23.9979L52.6374 23.7006L52.9595 23.3541ZM54.1287 78.0041C54.1253 77.9555 54.1161 77.9066 54.1006 77.8605C54.0996 77.8496 54.1001 77.8554 54.105 77.8441C54.1163 77.8489 54.104 77.8332 54.0911 77.8182C54.0727 77.8402 54.058 77.8641 54.0495 77.8919C53.9836 78.0062 53.9163 78.1631 53.826 78.3058C53.6593 78.558 53.511 78.7707 53.3496 78.9742C53.1391 79.2586 52.8841 79.5066 52.5947 79.7086C52.444 79.8404 52.2833 79.9592 52.1128 80.0635C52.1624 80.0746 52.2071 80.0876 52.256 80.0995C52.4955 80.131 52.7398 80.1161 52.9737 80.0553C53.0928 80.0211 53.2073 79.9748 53.3172 79.918C53.3489 79.8883 53.3852 79.8633 53.4235 79.8433C53.4765 79.7921 53.5263 79.7367 53.5723 79.6795L53.5868 79.6622L53.6161 79.6218L53.6717 79.5243C53.7088 79.4569 53.7461 79.3829 53.777 79.3102C53.8517 79.1637 53.9165 79.0114 53.9708 78.8557C54.0786 78.5852 54.1317 78.2959 54.1287 78.0041ZM53.6676 82.4589C53.5741 82.4187 53.4913 82.3593 53.4211 82.2856C53.2797 82.1341 53.3444 82.1352 53.1863 82.2413C52.9667 82.3841 52.7656 82.548 52.5587 82.7035C52.2755 82.9357 51.9595 83.1239 51.6212 83.2636C51.9241 84.2877 52.221 85.3116 52.6002 86.3022C52.9603 85.0261 53.3185 83.7363 53.6715 82.4621L53.6676 82.4589ZM52.3387 80.8839C52.2511 80.8702 52.1637 80.8506 52.0813 80.8306C51.999 80.8106 51.9198 80.7684 51.8423 80.737L51.7809 80.7152L51.7361 80.692L51.7138 80.6778L51.6285 80.6311C51.5887 80.6074 51.5509 80.5822 51.5145 80.5546C51.4664 80.5193 51.4216 80.4793 51.3809 80.436C51.3627 80.4105 51.3496 80.3846 51.332 80.365L51.3154 80.3664C51.0562 80.3935 50.7957 80.3288 50.5785 80.1837C50.5218 80.1498 50.469 80.109 50.4228 80.0619C50.5707 80.3311 50.7032 80.6082 50.819 80.8933C50.9283 81.171 51.0294 81.4544 51.1271 81.7323C51.3047 81.634 51.472 81.5161 51.6247 81.3812C51.8529 81.2034 52.0917 81.0385 52.339 80.8875L52.3387 80.8839ZM51.4751 76.3651L51.4721 76.3215C51.2598 76.4214 50.9087 76.6505 50.6065 76.8383C50.2029 77.0639 49.8549 77.3804 49.5917 77.7627C49.4952 77.9352 49.4456 78.1292 49.4465 78.327C49.4494 78.3705 49.4495 78.4136 49.4466 78.4569L49.4847 78.6486C49.486 78.6646 49.4929 78.6859 49.4948 78.7076C49.5974 78.8289 49.6984 78.9495 49.7899 79.0775C49.8538 79.0772 49.9172 79.0616 49.9751 79.034C50.0103 79.0114 50.0438 78.9873 50.0764 78.9605L50.076 78.9554C50.1126 78.7625 50.1825 78.5769 50.2822 78.4071C50.3224 78.3329 50.3717 78.2637 50.4273 78.2005L50.5843 78.0302C50.7126 77.8901 50.8488 77.7573 50.9922 77.6327C51.1394 77.4158 51.2598 77.1821 51.353 76.9369C51.4255 76.7556 51.4666 76.5637 51.4761 76.3687L51.4751 76.3651ZM52.146 87.9925C52.0994 87.949 52.063 87.8966 52.0362 87.8383C51.2974 86.1116 50.6856 84.3326 50.2057 82.5154C49.8102 81.2735 49.1748 80.1222 48.336 79.1261C47.5887 78.18 46.8952 77.1912 46.2595 76.1655C45.979 75.763 45.6568 75.391 45.2985 75.0564C45.1455 74.9059 44.343 73.8833 44.1714 73.8979C42.0978 74.2034 37.5807 73.804 37.1743 76.4989C37.0322 77.4849 37.0224 78.8918 36.4323 79.8029C36.7463 81.8474 39.8483 82.7519 41.7365 83.1813C41.1946 82.3782 40.9224 81.7143 41.0846 81.5874C41.2811 81.4298 42.057 82.1479 42.8208 83.1431C43.5516 84.082 44.1947 84.9471 44.0064 85.1254C43.9123 85.2151 43.5966 85.0901 43.1915 84.7858C44.239 88.0494 44.9782 91.1142 47.1583 93.9588C47.2507 94.0714 47.3074 94.2082 47.3211 94.3531C47.3776 94.4614 47.4116 94.5797 47.4212 94.7016C47.4751 95.438 47.5729 96.17 47.7151 96.8946C48.8014 95.2391 49.9599 93.6309 51.1912 92.0718C51.4586 90.7217 51.7894 89.3575 52.1473 87.9962L52.146 87.9925ZM50.5075 75.0413C50.5037 74.7999 50.395 74.5719 50.2104 74.4175C50.1601 74.3896 50.1134 74.344 50.0573 74.3166L49.9733 74.2858L49.9284 74.2626L49.9171 74.2577C49.8256 74.2494 49.7317 74.2304 49.6508 74.2263C49.6211 74.2449 49.5865 74.2566 49.551 74.2574C49.2867 74.3792 49.0621 74.5742 48.905 74.8205C48.7179 75.0978 48.5569 75.3918 48.4255 75.7001C48.4207 75.7115 48.4153 75.717 48.4157 75.7221C48.4086 75.7658 48.4075 75.8046 48.4 75.8534C48.3776 76.0335 48.3427 76.2474 48.3137 76.4879C48.2855 76.7283 48.2964 77.0362 48.3724 77.0407C48.4275 77.0404 48.4819 77.0307 48.5325 77.0103C48.6819 76.956 48.8275 76.8911 48.9679 76.8163C48.9886 76.8036 49.0043 76.7921 49.0243 76.7787C49.0991 76.7022 49.1744 76.6309 49.2493 76.5544C49.4248 76.4146 49.6102 76.2872 49.8031 76.1722C49.8238 76.1595 49.8394 76.1472 49.8594 76.1346C49.9927 75.9933 50.1261 75.8527 50.2519 75.6923L50.362 75.526L50.4046 75.4625L50.4131 75.4348L50.4352 75.3789C50.4882 75.2758 50.514 75.1605 50.5078 75.0449L50.5075 75.0413ZM38.3678 11.8179C38.282 11.8252 38.1964 11.8266 38.1055 11.8344C37.226 11.9398 36.3633 12.1577 35.5385 12.4804C35.0486 12.6659 34.5817 12.9071 34.1466 13.1988C33.6824 13.4975 33.2848 13.8883 32.9788 14.3487C32.6746 14.8885 32.4857 15.4865 32.4234 16.1043C32.296 16.7255 32.3698 17.3712 32.6338 17.9474C32.6642 17.9974 32.7008 18.0432 32.7421 18.0842C32.8536 18.1916 32.987 18.2729 33.1335 18.3218C32.7394 17.6858 32.7094 16.8882 33.0526 16.2245C33.1585 15.9578 33.2916 15.7034 33.4508 15.465C33.7095 15.0991 34.0055 14.7608 34.334 14.4547C34.8602 13.9449 35.1736 13.6313 35.2875 13.6976C35.4013 13.7638 35.2463 14.2311 34.8313 14.8614C34.6317 15.1704 34.3652 15.523 34.1612 15.9084C34.0527 16.1023 33.961 16.3058 33.8873 16.5157C33.8233 16.7365 33.7882 16.9651 33.7823 17.1949C33.7188 17.5836 33.8669 17.9762 34.1706 18.2249C34.469 18.4528 34.8059 18.6221 35.1662 18.7243C35.8294 18.9278 36.2901 19.0237 36.2852 19.1541C36.2826 19.2514 35.9535 19.3714 35.3727 19.3668C35.5072 19.4962 35.6479 19.6303 35.7888 19.7753C35.9297 19.9203 36.0851 20.0903 36.2378 20.2715C36.9561 19.8586 37.7221 19.5379 38.5198 19.3161C38.1323 19.1417 37.7539 18.9461 37.3876 18.7304L37.0618 18.5041L36.7629 18.2272C36.5863 18.0385 36.4246 17.8362 36.2765 17.6239C36.1471 17.4005 36.0336 17.1678 35.9376 16.9277C35.8557 16.6901 35.7985 16.4453 35.7671 16.1953C35.6544 15.2799 35.8633 14.3532 36.3581 13.5759C36.7857 12.9059 37.3714 12.3523 38.0627 11.9635C38.1653 11.9059 38.2686 11.8643 38.3678 11.8179ZM42.934 72.4423C42.6013 72.0157 42.2786 71.5781 41.9771 71.1335C41.8998 71.2153 41.8064 71.2787 41.7024 71.3204C39.7799 72.138 37.5436 71.5286 36.123 73.4987C35.1844 74.8744 34.9128 76.6023 35.3837 78.2027C35.5594 77.3978 35.5382 76.2854 35.6595 75.8751C35.907 75.0087 36.4588 74.2616 37.212 73.7719C38.9752 72.6707 40.9585 72.654 42.934 72.4423ZM41.133 69.8094C40.3661 68.5217 39.6919 67.1801 39.1172 65.7945C38.652 64.8426 38.0305 63.9754 37.2799 63.2296C37.1917 64.7907 36.8324 66.3244 36.7282 67.8847C36.7215 68.0284 36.6709 68.167 36.5839 68.281C36.1404 69.2934 35.8914 70.3812 35.8495 71.4871C36.2234 71.1852 36.6343 70.9334 37.0725 70.7385C38.3876 70.1675 39.8542 70.3459 41.133 69.8094ZM35.0513 21.1223C34.9605 21.0118 34.8557 20.9068 34.7547 20.7957C34.442 20.4762 34.0976 20.1594 33.7687 19.8362L33.5939 19.6941L33.5881 19.6946C33.4979 19.7271 33.4041 19.7518 33.3094 19.7664C33.1873 19.7819 33.0636 19.78 32.9427 19.7596C32.846 19.7416 32.7502 19.7169 32.6568 19.6868C32.5678 19.6564 32.5168 19.6287 32.4443 19.5968C32.3613 19.5601 32.28 19.5181 32.2019 19.4714C32.1055 19.8418 31.9202 20.1824 31.6623 20.4642C31.0733 21.0816 30.3082 21.3204 29.9187 21.7375C29.4957 22.3247 29.2916 23.0429 29.3428 23.7657C29.3309 24.2238 29.3756 24.6814 29.4747 25.1286C29.539 25.4838 29.6951 25.8158 29.9284 26.091C29.9507 26.0715 29.9739 26.0535 29.9986 26.0368C30.1524 25.931 30.2933 25.8278 30.4352 25.7288C30.7091 25.5325 30.9535 25.365 31.1497 25.203C31.4771 24.9438 31.7594 24.6329 31.9868 24.2821C32.3532 23.7209 32.5126 23.4423 32.6183 23.4815C32.6678 23.4992 32.6859 23.5845 32.6738 23.7579C32.647 24.0244 32.5844 24.2875 32.4872 24.5374C32.3209 25.0085 32.0544 25.4371 31.7062 25.7931C31.4867 26.0308 31.252 26.253 31.0036 26.4588C30.8784 26.5665 30.7486 26.6805 30.6075 26.8064C30.5424 26.8608 30.4673 26.9264 30.4078 26.9869L30.2449 27.1643C29.7522 27.7435 29.5734 28.529 29.7668 29.2659C29.789 29.3735 29.8163 29.4807 29.8485 29.586C29.8889 29.6856 29.9298 29.7901 29.9713 29.8946C30.0914 30.094 30.2357 30.2781 30.4 30.4423C30.6719 30.7178 30.8925 31.0393 31.0504 31.3931C31.2031 31.8313 31.2195 32.3052 31.0962 32.7522C30.9952 33.1449 30.8511 33.4761 30.7962 33.7188C30.7754 33.8506 30.7811 33.9859 30.7608 34.1227C30.7619 34.2635 30.7854 34.4126 30.7874 34.5636C30.891 35.2184 31.1656 35.8339 31.5848 36.3466C32.0232 36.9145 32.6194 37.3399 33.2978 37.5691C33.6695 37.677 34.0637 37.6822 34.4383 37.5853C33.9054 36.94 33.4831 36.21 33.189 35.4253C33.0056 34.9007 32.8667 34.3605 32.775 33.8113C32.6979 34.1266 32.6386 34.4456 32.5984 34.7681C32.532 35.3199 32.542 35.7541 32.4086 35.7742C32.2961 35.7838 32.0709 35.4759 31.9583 34.7845C31.8847 33.9351 31.9776 33.0796 32.2325 32.2672L32.2695 32.129L32.3033 31.9626C32.3265 31.8518 32.3494 31.736 32.3716 31.6297C32.3945 31.5234 32.423 31.4143 32.4468 31.3094C32.4499 31.2178 32.4534 31.1307 32.4569 31.0435C32.4677 30.9827 32.474 30.9201 32.4745 30.858C32.4705 30.7503 32.4609 30.6372 32.452 30.5328C31.1364 29.3028 31.6866 26.784 33.0455 25.6784C32.9598 23.9262 33.7032 22.2365 35.0513 21.1223ZM35.565 64.3354C35.5649 64.2654 35.569 64.1942 35.5689 64.1241C35.5345 63.9511 35.5102 63.7757 35.4974 63.6001C35.4589 63.4034 35.3511 63.1519 35.2835 62.9204L35.2514 62.8588L35.2477 62.8161L35.1924 62.6697C35.1412 62.5711 35.1054 62.4661 35.0433 62.3684L35.0425 62.367C34.9301 62.1641 34.8072 61.9665 34.6748 61.7762C33.6339 60.4272 32.4012 59.2398 31.0161 58.252C29.9441 57.4181 29.2823 56.8457 29.3847 56.6654C29.4871 56.4852 30.3123 56.7501 31.5666 57.3794C32.2073 57.7119 32.8229 58.0904 33.41 58.5113C32.7557 57.5565 32.1557 56.5658 31.6118 55.5431C31.3742 55.0807 31.1658 54.6034 30.9897 54.1132C30.9354 54.2434 30.8705 54.3686 30.7956 54.4874L30.7476 54.5558L30.7237 54.5906L30.7143 54.6075C30.7044 54.6193 30.6804 54.6535 30.6804 54.6535L30.5227 54.8238C30.2894 55.0787 29.9907 55.2655 29.6589 55.3623C29.0299 55.5173 28.3688 55.4742 27.7645 55.2372C27.4986 55.1517 27.2376 55.0549 26.9934 54.9676C26.9765 55.0172 26.959 55.0676 26.9364 55.1177C26.8745 55.2274 26.8018 55.3299 26.7182 55.4232C26.6251 55.5238 26.5184 55.611 26.4017 55.6823C26.2842 55.7441 26.1596 55.7912 26.0308 55.8226C25.6481 55.8931 25.2538 55.8434 24.8993 55.6815C24.6766 55.5829 24.4624 55.4638 24.2611 55.3269C24.128 55.5215 23.9576 55.6871 23.7584 55.8135C23.4634 55.9926 23.112 56.0554 22.7729 55.9885C22.5192 55.9356 22.2781 55.8335 22.0636 55.6867C21.5001 55.279 21.0371 54.7467 20.7109 54.1305C20.1719 53.1652 20.1274 52.4629 20.2808 52.4302C20.4342 52.3974 20.7277 52.9011 21.4009 53.6338C21.7541 54.0535 22.1771 54.4067 22.6514 54.6789C22.7446 54.733 22.849 54.765 22.9558 54.7727C22.9991 54.7778 23.0413 54.7618 23.0713 54.7301C23.2207 54.5305 23.3208 54.2978 23.363 54.0511L23.6108 52.9152L24.5104 53.747C24.7775 54.001 25.0883 54.2038 25.428 54.3458C25.5017 54.3833 25.5826 54.4042 25.665 54.4074C25.6691 54.3961 25.693 54.2415 25.693 54.2415L25.7082 54.035L25.7536 53.1171L26.5842 53.3166C27.1385 53.479 27.6819 53.6745 28.212 53.9032C28.5559 54.0602 28.9335 54.1266 29.3101 54.0961C29.4411 54.0733 29.5638 54.0125 29.6614 53.9209L29.727 53.8723L29.7323 53.866L29.7472 53.8538L29.7467 53.848L29.7518 53.8475L29.7815 53.8129L29.8356 53.7484C29.8756 53.6976 29.9096 53.645 29.9397 53.5884C30.0862 53.2861 30.1821 52.9619 30.2242 52.6283C30.258 52.3933 30.2765 52.1749 30.2916 51.9684C30.0627 52.2317 29.7822 52.4446 29.4681 52.5955C28.9465 52.8435 28.3605 52.9232 27.7919 52.8241C26.947 52.6272 26.1911 52.1527 25.6432 51.4765C25.591 51.5123 25.5364 51.5447 25.4791 51.5722C25.233 51.6939 24.9605 51.7528 24.6858 51.7426C24.5517 51.7379 24.4187 51.72 24.2882 51.6895C24.1944 51.6712 24.1021 51.6447 24.0134 51.6099L23.9533 51.5946L23.9245 51.5809L23.8132 51.5364C23.8019 51.5315 23.6552 51.4469 23.6552 51.4469C23.5588 51.3894 23.4681 51.3226 23.3855 51.2479C23.2243 51.1126 23.0804 50.9577 22.9583 50.7862C22.7596 50.4994 22.5938 50.1908 22.4652 49.8659C22.3718 49.6468 22.2842 49.4374 22.1993 49.2665C21.9821 49.447 21.7328 49.5814 21.4637 49.6641C21.1621 49.7562 20.8436 49.7782 20.5326 49.7265C20.4687 49.718 20.4064 49.7036 20.3458 49.6825L20.2016 49.6356L20.1678 49.6224L20.062 49.5825L20.0452 49.573L19.955 49.5208L19.7835 49.4171C19.4064 49.1344 19.1233 48.7438 18.9726 48.2959C18.8567 47.967 18.7883 47.6231 18.7673 47.2745C18.7342 46.8166 18.7532 46.3558 18.8229 45.9023C18.8727 45.6002 18.9332 45.422 19.0079 45.4215C19.0827 45.421 19.1768 45.5707 19.2623 45.8759C19.3478 46.1811 19.4392 46.6238 19.5847 47.1305C19.6835 47.6602 19.9773 48.1332 20.4071 48.4551L20.4915 48.491L20.6572 48.5258C20.7127 48.5372 20.7679 48.5544 20.7715 48.5373C20.874 48.5205 20.9742 48.4945 21.0714 48.4585C21.3018 48.3666 21.4822 48.1805 21.5669 47.9462L21.8046 47.136L22.5533 47.5856C22.8916 47.7964 23.1682 48.0941 23.3531 48.4485C23.5238 48.748 23.6461 49.0238 23.763 49.2796C24.2309 50.2889 24.5823 50.4321 25.2356 49.6304C26.0016 48.6943 26.469 50.4667 27.0526 50.9902C27.3329 51.2708 27.6754 51.4804 28.0512 51.6025C28.3751 51.6874 28.7158 51.6775 29.0338 51.5738C29.3304 51.4734 29.6001 51.3037 29.8208 51.0798C29.841 51.062 29.8558 51.0388 29.8806 51.0148C29.6885 50.9771 29.5017 50.9331 29.2864 50.8704C29.1379 50.8232 28.9875 50.7717 28.8322 50.7141L28.6035 50.6306L28.4285 50.5374C28.3153 50.4711 28.1969 50.4111 28.0787 50.3452L28.0339 50.322L27.988 50.2872L27.9875 50.2887C27.9805 50.2834 27.9728 50.2782 27.9651 50.2738L27.9417 50.2546L27.8379 50.1707L27.6357 50.0046C27.0802 49.5116 26.6931 48.856 26.529 48.1304C26.4658 47.8905 26.4196 47.663 26.3781 47.4402C26.1133 47.5131 25.8358 47.5213 25.5673 47.4653C25.1027 47.358 24.7003 47.0681 24.4492 46.6609C24.2716 46.3839 24.1363 46.0822 24.0476 45.7656C23.8815 45.1533 23.7738 44.5265 23.7258 43.894L23.6913 43.4881C23.387 43.6089 23.0676 43.6886 22.7424 43.7257C21.9322 43.8435 21.11 43.606 20.485 43.0736C20.3442 42.9476 20.2154 42.8081 20.1002 42.6573C20.0056 42.5018 19.911 42.3463 19.8244 42.1989C19.6926 41.9049 19.603 41.5943 19.5577 41.2754C19.4841 40.7428 19.5173 40.2019 19.6533 39.6822C19.8472 38.9802 20.217 38.3392 20.7281 37.8226C21.085 37.5265 21.3168 37.3988 21.397 37.462C21.4772 37.5253 21.4037 37.7886 21.1897 38.1937C21.1224 38.4104 21.0169 38.6304 20.9392 38.9129C20.8977 39.0574 20.8559 39.2062 20.8155 39.3725C20.7913 39.5315 20.7623 39.7041 20.7416 39.8876C20.7118 40.2632 20.749 40.6412 20.8531 41.0032C20.905 41.1864 20.9782 41.3635 21.0694 41.5309C21.1292 41.601 21.1897 41.6718 21.2437 41.7432C21.2977 41.8145 21.382 41.8497 21.4414 41.9154C21.7579 42.1178 22.1425 42.1807 22.506 42.09C23.0134 41.9658 23.4921 41.7433 23.9149 41.4351L24.831 40.871L25.2023 41.8206C25.2808 42.0176 25.3324 42.2235 25.3568 42.4339C25.3858 42.595 25.3976 42.7342 25.4157 42.8786C25.4498 43.151 25.4781 43.4245 25.5069 43.7032C25.5579 44.2179 25.6499 44.7278 25.7824 45.2268C25.8236 45.3788 25.8847 45.5248 25.9645 45.6603C25.969 45.6702 25.9755 45.6784 25.9827 45.6858C26.0104 45.6783 26.037 45.6666 26.0612 45.6521C26.2051 45.5844 26.3404 45.5006 26.465 45.4024L27.5802 44.5827L27.8779 45.8722C28.0484 46.6046 28.0702 47.246 28.1769 47.74C28.2372 48.1583 28.422 48.547 28.7071 48.8579L28.8898 49.0417L29.2207 49.2589L29.3804 49.3694L29.5085 49.4228C29.5929 49.4587 29.6774 49.4953 29.7623 49.537C29.9016 49.5953 30.0627 49.6524 30.2236 49.7088C30.2176 46.997 31.0285 44.3495 32.5498 42.1116C30.6094 41.4625 28.9918 40.0893 28.0298 38.2759C26.896 36.4244 24.8396 33.0349 22.1815 33.6068C18.2069 34.4696 16.7595 41.3707 16.1774 44.6596C15.1819 50.2893 16.4328 55.2622 19.6976 60.0479C23.5593 65.7028 28.854 70.0559 33.8509 74.6462C34.0028 74.0923 34.5428 73.4192 34.5163 72.8425C34.5052 72.7033 34.4682 72.5677 34.4068 72.443C34.2061 72.0906 33.9689 71.761 33.6991 71.4591C33.6928 71.4538 33.4397 71.1343 33.4397 71.1343C33.2663 70.9228 33.0971 70.7093 32.9286 70.4966C32.7403 70.3074 32.5522 70.1198 32.3699 69.9323C32.2754 69.8381 32.191 69.7423 32.0871 69.6482L31.7677 69.3775C31.5587 69.2003 31.3567 69.0291 31.1474 68.8578C30.9382 68.6865 30.7102 68.5 30.4997 68.323C30.2893 68.1459 30.0771 67.9749 29.8674 67.7978L29.2777 67.2536C27.9183 65.9864 26.6575 64.6158 25.5055 63.1557C23.5662 60.6637 22.5284 59.0268 22.6744 58.9064C22.8341 58.7687 24.1672 60.1966 26.2776 62.4783C27.5021 63.8081 28.7945 65.0722 30.1513 66.2652C30.3428 66.4329 30.5401 66.6001 30.7323 66.7678C30.9399 66.9283 31.1411 67.09 31.3488 67.2512C31.5564 67.4117 31.7696 67.5776 31.9827 67.7435C32.203 67.9248 32.4284 68.1064 32.6541 68.2924C33.1213 68.6776 33.5648 69.0918 33.9807 69.5317C34.0235 69.5821 34.0591 69.6331 34.102 69.685C34.048 69.4946 33.9834 69.3074 33.9083 69.124C33.487 68.253 32.942 67.448 32.29 66.7346C31.6588 66.01 30.9991 65.3513 30.4139 64.6708C29.8355 64.0118 29.2995 63.3974 28.8091 62.8332C26.8625 60.5805 25.7283 59.135 25.8669 58.9948C26.0054 58.8546 27.3944 60.0601 29.5363 62.1398C30.0657 62.6679 30.6419 63.241 31.2647 63.859C31.8661 64.4737 32.565 65.1057 33.2642 65.853C33.7372 66.3502 34.1699 66.8858 34.5574 67.453C34.1368 66.1541 33.5176 64.929 32.7225 63.8219C31.4813 62.2278 30.1476 60.7087 28.7294 59.2712C27.6436 58.0873 27.0994 57.2566 27.2269 57.1159C27.3701 56.9628 28.1841 57.5485 29.4289 58.5189C31.1194 59.7923 32.6268 61.296 33.9059 62.9862C34.5188 63.8379 35.0094 64.7724 35.3623 65.7616C35.4358 65.2845 35.5028 64.8086 35.5648 64.3324L35.565 64.3354Z" fill="#FDFEFF"/>
<path d="M65.0091 49.3448L65.0194 49.3381C65.0781 49.3017 65.1275 49.2508 65.1631 49.1908C65.3079 48.9631 65.4107 48.7105 65.4659 48.4459L65.8926 46.5004L66.7735 48.2479C66.8678 48.4428 66.9718 48.6325 67.0862 48.8163C67.0959 48.8366 67.1084 48.8553 67.123 48.8723C67.1688 48.8472 67.2119 48.8158 67.2502 48.7797L67.3003 48.7368C67.3064 48.7319 67.3133 48.7276 67.3204 48.7248L67.3349 48.7075L67.4541 48.5894C67.554 48.4991 67.5414 48.479 67.5907 48.4266C67.8813 47.8887 67.9936 47.2695 67.91 46.6626C67.8761 46.0756 67.802 45.5796 67.7882 45.2288C67.7743 44.8781 67.7995 44.6701 67.8834 44.6483C67.968 44.6266 68.0887 44.782 68.2546 45.0928C68.4879 45.5468 68.6694 46.0242 68.7957 46.518C68.8951 46.884 68.9489 47.2613 68.9565 47.6403C68.9736 48.1411 68.856 48.6374 68.615 49.0762C68.5457 49.2011 68.4658 49.3203 68.3764 49.4316L68.2697 49.5604L68.2453 49.5895L68.1907 49.6481L68.1211 49.7183C68.0149 49.8281 67.8962 49.9272 67.7691 50.0133C67.5887 50.1381 67.382 50.2192 67.1651 50.2486C66.884 50.2747 66.6036 50.1978 66.3745 50.0325C66.3658 50.0245 66.3579 50.0164 66.3506 50.0075C66.1813 50.2636 65.9538 50.4757 65.6869 50.6268C65.5221 50.7139 65.3423 50.7693 65.1575 50.7909C65.0491 50.7979 64.94 50.7962 64.8316 50.7857L64.6664 50.7567C64.2084 50.651 63.8114 50.365 63.5644 49.9633C63.3937 49.6894 63.2554 49.396 63.1523 49.0893C63.1098 48.9732 63.0735 48.8631 63.0315 48.7535C62.9668 48.8131 62.9019 48.8777 62.8261 48.9345C62.6993 49.0417 62.5562 49.1269 62.4014 49.1867C62.1988 49.2638 61.9781 49.2826 61.7653 49.2408C61.4233 49.1487 61.1354 48.9162 60.9727 48.6C60.7846 48.2414 60.6586 47.8535 60.6012 47.4517C60.5467 47.1439 60.513 46.8321 60.5009 46.5192C60.454 45.4039 60.5728 44.7667 60.7221 44.754C60.8714 44.7413 61.054 45.369 61.3297 46.3903C61.3992 46.6436 61.4763 46.9181 61.576 47.2017C61.6617 47.4755 61.7856 47.7365 61.9426 47.9765C61.9477 47.9856 61.9542 47.9938 61.9615 48.0019C61.9764 47.9897 61.9967 47.9719 62.017 47.9541C62.2513 47.694 62.4473 47.4021 62.5992 47.0869L63.0588 46.2207L63.7043 46.9769C63.9143 47.2343 64.0798 47.5233 64.1963 47.8339C64.2863 48.0715 64.383 48.321 64.4802 48.5668C64.5541 48.7694 64.6497 48.9627 64.7661 49.1441C64.8657 49.2992 64.9256 49.3197 64.9441 49.3239L65.0091 49.3448Z" fill="#FDFEFF"/>
<path d="M56.9591 25.5075L56.9722 25.5334C56.972 25.5305 56.9689 25.5285 56.9661 25.5295C56.9662 25.5215 56.9634 25.5144 56.9591 25.5075Z" fill="#FDFEFF"/>
<path d="M48.7696 36.1729C48.8418 36.3303 48.3252 36.7736 47.3877 37.3344C47.1464 37.4688 46.8784 37.6157 46.5966 37.7696C46.314 37.9236 45.9513 38.0413 45.5971 38.1817C45.4144 38.2461 45.228 38.3269 45.0444 38.3805C44.4557 38.5649 43.8492 38.6858 43.2348 38.7395C42.3958 38.8086 41.5512 38.7095 40.7501 38.4476C40.1162 38.246 39.5092 37.9683 38.9413 37.6202C37.9871 37.0354 37.506 36.5631 37.5787 36.4101C37.6522 36.2579 38.3253 36.4496 39.3199 36.7922C41.0812 37.4207 42.9801 37.5557 44.811 37.1811C44.9847 37.1393 45.1365 37.0877 45.2943 37.0473C45.6116 36.9502 45.911 36.8919 46.1984 36.7864C46.4859 36.681 46.7639 36.5931 47.0149 36.5119C48.0277 36.171 48.697 36.0112 48.7696 36.1729Z" fill="#FDFEFF"/>
<path d="M45.6111 28.9018C45.6512 29.0911 45.6496 29.2862 45.6061 29.4746C45.5069 29.7101 45.3851 29.8496 45.2604 29.8442C45.1365 29.8387 45.0365 29.68 44.9672 29.4369C44.8726 29.2383 44.7536 29.0521 44.6135 28.8829C44.3914 28.6535 44.2076 28.3895 44.0684 28.1013C43.9754 27.8281 43.9861 27.6374 44.0933 27.5743C44.2013 27.511 44.3778 27.5712 44.5658 27.6976C44.8416 27.8567 45.0919 28.0581 45.306 28.2947C45.3738 28.3919 45.4417 28.4891 45.4975 28.5821C45.542 28.6864 45.5793 28.7928 45.6111 28.9018Z" fill="#FDFEFF"/>
<path d="M42.6837 26.5152C42.7048 26.8668 42.6388 27.2185 42.4909 27.5377C42.3469 27.8697 42.1395 28.1896 42.0161 28.4819C41.491 29.3975 42.0051 29.31 42.6025 29.7404C42.74 29.8367 42.7824 29.9419 42.747 29.9873C42.7203 30.0494 42.63 30.0629 42.4969 30.0786C42.3639 30.095 42.1982 30.1201 41.9324 30.1383C41.7469 30.1613 41.5594 30.1342 41.3874 30.0597C41.2441 29.9975 41.1265 29.887 41.0543 29.7471C40.989 29.6285 40.9503 29.4975 40.9402 29.3618C40.9286 29.2431 40.9272 29.1242 40.9367 29.0051C40.9462 28.9108 40.9615 28.8176 40.9834 28.7252C41.0284 28.5111 41.0978 28.3015 41.1891 28.1024C41.3522 27.7739 41.5375 27.4581 41.7436 27.1558C41.873 26.9521 41.9726 26.7304 42.0378 26.4978C42.0649 26.4065 42.0876 26.3147 42.1051 26.2213C42.104 26.1315 42.111 26.0426 42.126 25.9544C42.1461 25.8067 42.1871 25.7164 42.2496 25.6986C42.312 25.6809 42.3828 25.753 42.4687 25.8749C42.5179 25.9496 42.5624 26.0283 42.6019 26.1089C42.6429 26.2412 42.6705 26.3777 42.6837 26.5152Z" fill="#FDFEFF"/>
<path d="M38.0837 42.6752C39.7225 42.7082 41.0495 42.9364 41.0497 43.1853C41.0498 43.4343 39.7099 43.619 38.0797 43.5845C36.4495 43.5501 35.1249 43.3327 35.1199 43.079C35.1142 42.8247 36.4388 42.6479 38.0837 42.6752Z" fill="#FDFEFF"/>
<path d="M18 65L17.5713 65.2572L18 65ZM31 78.5L31.4903 78.5981L31.548 78.3096L31.3238 78.119L31 78.5ZM38.5 87L38.9743 86.8419L38.8732 86.5384L38.5552 86.5031L38.5 87ZM42 94.5L42.4642 94.3143L42.3936 94.1378L42.2236 94.0528L42 94.5ZM43 98.5L43.3201 98.8841L43.5 98.7342V98.5H43ZM42 104L41.584 104.277L42 104ZM26 24L26.4744 24.1581L26 24ZM16.5528 55.969C16.6763 55.722 16.5762 55.4217 16.3292 55.2982C16.0822 55.1747 15.7819 55.2748 15.6584 55.5218L16.5528 55.969ZM14.3521 58.437C14.2552 58.6955 14.3862 58.9837 14.6448 59.0807C14.9033 59.1777 15.1915 59.0467 15.2885 58.7881L14.3521 58.437ZM17.8099 58.8854C17.9605 58.654 17.8951 58.3442 17.6637 58.1935C17.4323 58.0429 17.1225 58.1083 16.9719 58.3397L17.8099 58.8854ZM16.3967 60.0955L16.871 60.2537L16.3967 60.0955ZM15.6414 60.7997C15.5388 61.056 15.6635 61.347 15.9199 61.4496C16.1763 61.5521 16.4673 61.4274 16.5698 61.171L15.6414 60.7997ZM19.471 61.0269C19.494 60.7517 19.2895 60.51 19.0143 60.4871C18.7391 60.4641 18.4974 60.6686 18.4745 60.9438L19.471 61.0269ZM17.1943 63.8692C17.1489 64.1416 17.3329 64.3992 17.6053 64.4446C17.8777 64.49 18.1353 64.306 18.1807 64.0336L17.1943 63.8692ZM21.0982 63.2902C21.2245 63.0447 21.1278 62.7432 20.8822 62.6169C20.6366 62.4906 20.3352 62.5873 20.2089 62.8329L21.0982 63.2902ZM18.5632 65.8397C18.4048 66.0659 18.4598 66.3777 18.686 66.5361C18.9123 66.6944 19.224 66.6394 19.3824 66.4132L18.5632 65.8397ZM22.4972 65.2359C22.606 64.9821 22.4884 64.6881 22.2346 64.5793C21.9808 64.4706 21.6868 64.5881 21.5781 64.8419L22.4972 65.2359ZM20.0546 68.3015C20.0546 68.5777 20.2785 68.8015 20.5546 68.8015C20.8308 68.8015 21.0546 68.5777 21.0546 68.3015H20.0546ZM23.4176 66.5221C23.4723 66.2514 23.2972 65.9876 23.0265 65.933C22.7558 65.8783 22.4921 66.0534 22.4374 66.3241L23.4176 66.5221ZM22.0487 69.2737L22.4959 69.4973L22.0487 69.2737ZM21.4388 69.9823C21.4388 70.2584 21.6627 70.4823 21.9388 70.4823C22.2149 70.4823 22.4388 70.2584 22.4388 69.9823H21.4388ZM25.1831 68.1577C25.2675 67.8948 25.1228 67.6132 24.8599 67.5288C24.5969 67.4444 24.3154 67.5892 24.231 67.8521L25.1831 68.1577ZM23.1206 70.9675C22.9549 71.1884 22.9997 71.5018 23.2206 71.6675C23.4415 71.8332 23.7549 71.7884 23.9206 71.5675L23.1206 70.9675ZM27.2025 69.9582C27.353 69.7266 27.2873 69.4169 27.0558 69.2664C26.8242 69.116 26.5146 69.1816 26.3641 69.4132L27.2025 69.9582ZM24.6282 72.889C24.5409 73.151 24.6825 73.4342 24.9444 73.5215C25.2064 73.6088 25.4896 73.4672 25.5769 73.2053L24.6282 72.889ZM28.5091 72.0012C28.7505 71.8671 28.8375 71.5627 28.7034 71.3213C28.5693 71.0799 28.2649 70.993 28.0235 71.1271L28.5091 72.0012ZM27.5742 73.1241L27.1187 72.918L27.5742 73.1241ZM26.4078 74.4709C26.3205 74.7329 26.4621 75.016 26.724 75.1034C26.986 75.1907 27.2692 75.0491 27.3565 74.7871L26.4078 74.4709ZM30.5425 72.9078C30.5747 72.6336 30.3786 72.3851 30.1043 72.3529C29.8301 72.3206 29.5816 72.5168 29.5493 72.791L30.5425 72.9078ZM28.3744 76.2874C28.3075 76.5553 28.4703 76.8267 28.7382 76.8937C29.0061 76.9607 29.2776 76.7978 29.3446 76.5299L28.3744 76.2874ZM31.9861 74.9303C32.0979 74.6778 31.9838 74.3825 31.7313 74.2707C31.4788 74.1589 31.1835 74.273 31.0717 74.5255L31.9861 74.9303ZM29.5716 77.3381C29.4842 77.6 29.6258 77.8832 29.8878 77.9705C30.1498 78.0579 30.4329 77.9163 30.5202 77.6543L29.5716 77.3381ZM30.6334 79.869C30.6334 80.1451 30.8573 80.369 31.1334 80.369C31.4096 80.369 31.6334 80.1451 31.6334 79.869H30.6334ZM31.7816 77.9905L32.2186 78.2333L31.7816 77.9905ZM32.5066 76.7602L32.0235 76.6313L32.5066 76.7602ZM33.1703 76.5408C33.4071 76.3987 33.4839 76.0916 33.3418 75.8548C33.1997 75.618 32.8926 75.5412 32.6558 75.6833L33.1703 76.5408ZM34.3489 78.8073C34.4724 78.5603 34.3723 78.26 34.1253 78.1365C33.8783 78.013 33.578 78.1131 33.4545 78.3601L34.3489 78.8073ZM32.3198 81.7859L31.8272 81.7002L32.3198 81.7859ZM32.0232 82.4835L32.4994 82.6359L32.4994 82.6359L32.0232 82.4835ZM32.0218 82.488L31.5456 82.3356L31.5455 82.3357L32.0218 82.488ZM32.3255 82.835C32.3255 82.5589 32.1016 82.335 31.8255 82.335C31.5494 82.335 31.3255 82.5589 31.3255 82.835H32.3255ZM35.4615 80.7253C35.5522 80.4645 35.4143 80.1795 35.1535 80.0888C34.8927 79.9981 34.6077 80.136 34.517 80.3968L35.4615 80.7253ZM33.3634 83.5271L33.7901 83.7878L33.3634 83.5271ZM33.4591 83.8967C33.3356 83.6497 33.0353 83.5496 32.7883 83.6731C32.5413 83.7966 32.4412 84.0969 32.5647 84.3439L33.4591 83.8967ZM36.8542 82.1814C36.93 81.9159 36.7763 81.6392 36.5108 81.5633C36.2453 81.4874 35.9685 81.6412 35.8927 81.9067L36.8542 82.1814ZM34.7301 85.0047C34.618 85.2571 34.7316 85.5526 34.9839 85.6647C35.2363 85.7769 35.5318 85.6632 35.6439 85.4109L34.7301 85.0047ZM39.2412 83.5978C39.2802 83.3244 39.0903 83.0712 38.8169 83.0321C38.5435 82.9931 38.2903 83.183 38.2512 83.4564L39.2412 83.5978ZM37.4553 86.4931C37.4553 86.7693 37.6791 86.9931 37.9553 86.9931C38.2314 86.9931 38.4553 86.7693 38.4553 86.4931H37.4553ZM41.8917 85.279C42.1494 85.1799 42.278 84.8906 42.1789 84.6329C42.0797 84.3751 41.7904 84.2465 41.5327 84.3457L41.8917 85.279ZM38.6087 86.8382C38.4717 87.078 38.555 87.3834 38.7947 87.5204C39.0345 87.6574 39.3399 87.5741 39.4769 87.3344L38.6087 86.8382ZM42.2959 86.811C42.4715 86.5978 42.441 86.2827 42.2278 86.1071C42.0146 85.9316 41.6995 85.9621 41.524 86.1752L42.2959 86.811ZM40.3281 89.0087L40.7817 89.2191L40.3281 89.0087ZM40.0754 90.1896L40.5538 90.3352L40.0754 90.1896ZM39.3435 90.6463C39.2893 90.9171 39.4649 91.1805 39.7357 91.2347C40.0065 91.2888 40.2699 91.1132 40.324 90.8425L39.3435 90.6463ZM43.6014 89.3553C43.7625 89.131 43.7112 88.8186 43.4869 88.6575C43.2626 88.4965 42.9502 88.5477 42.7891 88.772L43.6014 89.3553ZM40.3374 93.2925C40.2704 93.5604 40.4333 93.8319 40.7012 93.8989C40.9691 93.9659 41.2405 93.803 41.3075 93.5351L40.3374 93.2925ZM44.6149 92.3045C44.8213 92.1211 44.8399 91.805 44.6565 91.5986C44.473 91.3922 44.157 91.3736 43.9506 91.5571L44.6149 92.3045ZM42.7174 94.3256L42.2898 94.0665L42.7174 94.3256ZM41.8582 94.7721C41.7347 95.0191 41.8348 95.3194 42.0818 95.4429C42.3288 95.5664 42.6291 95.4663 42.7526 95.2193L41.8582 94.7721ZM45.6365 94.3487C45.8252 94.1471 45.8147 93.8307 45.6131 93.642C45.4115 93.4533 45.0951 93.4637 44.9064 93.6654L45.6365 94.3487ZM43.2062 96.3689L42.7844 96.1004L43.2062 96.3689ZM42.6439 96.3229C42.4487 96.5181 42.4487 96.8347 42.6439 97.03C42.8392 97.2253 43.1558 97.2253 43.3511 97.03L42.6439 96.3229ZM41.2187 100.522C41.0491 100.74 41.0884 101.054 41.3064 101.224C41.5243 101.393 41.8385 101.354 42.008 101.136L41.2187 100.522ZM44.9419 97.6047L44.6144 97.2268L44.9419 97.6047ZM46.4182 96.953C46.6802 96.8657 46.8218 96.5826 46.7344 96.3206C46.6471 96.0586 46.364 95.917 46.102 96.0044L46.4182 96.953ZM44.1931 102.51C44.4116 102.341 44.4518 102.027 44.2829 101.808C44.1139 101.59 43.7999 101.55 43.5815 101.719L44.1931 102.51ZM41.8311 103.637C41.7438 103.899 41.8853 104.182 42.1473 104.269C42.4093 104.357 42.6924 104.215 42.7798 103.953L41.8311 103.637ZM44.8022 105.351C44.9515 105.118 44.8843 104.809 44.652 104.66C44.4197 104.51 44.1104 104.577 43.961 104.81L44.8022 105.351ZM43.0712 106.194C42.9219 106.426 42.9892 106.736 43.2214 106.885C43.4537 107.034 43.7631 106.967 43.9124 106.735L43.0712 106.194ZM47.0183 106.063C47.1245 105.809 47.0039 105.516 46.749 105.41C46.4941 105.303 46.2014 105.424 46.0952 105.679L47.0183 106.063ZM45.6869 106.801C45.5996 107.062 45.7412 107.346 46.0031 107.433C46.2651 107.52 46.5483 107.379 46.6356 107.117L45.6869 106.801ZM49.581 106.378C49.697 106.127 49.5879 105.83 49.3373 105.714C49.0867 105.598 48.7895 105.707 48.6735 105.958L49.581 106.378ZM47.9728 107.559C47.8677 107.815 47.9895 108.107 48.2448 108.212C48.5001 108.317 48.7924 108.195 48.8975 107.94L47.9728 107.559ZM51.8557 106.376C51.9708 106.125 51.8608 105.828 51.6098 105.713C51.3589 105.598 51.062 105.708 50.9468 105.959L51.8557 106.376ZM50.2092 107.947C50.2092 108.223 50.433 108.447 50.7092 108.447C50.9853 108.447 51.2092 108.223 51.2092 107.947H50.2092ZM33.5655 39.5112C33.8275 39.4238 33.9691 39.1407 33.8817 38.8787C33.7944 38.6167 33.5112 38.4752 33.2493 38.5625L33.5655 39.5112ZM32.9076 39.8827L32.4268 39.7453L32.9076 39.8827ZM33.1165 40.3221C33.1165 40.046 32.8926 39.8221 32.6165 39.8221C32.3403 39.8221 32.1165 40.046 32.1165 40.3221H33.1165ZM31.5569 38.1163C31.7037 37.8824 31.6332 37.5738 31.3993 37.427C31.1655 37.2801 30.8568 37.3507 30.71 37.5845L31.5569 38.1163ZM29.7459 38.9334C29.525 39.0991 29.4802 39.4125 29.6459 39.6334C29.8116 39.8543 30.125 39.8991 30.3459 39.7334L29.7459 38.9334ZM30.4406 36.2789C30.6101 36.0609 30.5708 35.7468 30.3529 35.5773C30.1349 35.4077 29.8207 35.447 29.6512 35.665L30.4406 36.2789ZM29.1616 37.444L29.6005 37.6834L29.1616 37.444ZM29.6442 37.3657C29.7041 37.0961 29.5341 36.829 29.2646 36.7691C28.995 36.7092 28.7279 36.8792 28.668 37.1487L29.6442 37.3657ZM27.5484 34.8327C27.3014 34.9562 27.2013 35.2565 27.3248 35.5035C27.4483 35.7505 27.7486 35.8506 27.9956 35.7271L27.5484 34.8327ZM28.9364 34.3681L29.199 34.7936H29.199L28.9364 34.3681ZM30.2244 34.2129C30.4542 34.0597 30.5163 33.7493 30.3631 33.5195C30.2099 33.2897 29.8995 33.2277 29.6697 33.3808L30.2244 34.2129ZM26.3902 33.5097C26.3408 33.7814 26.521 34.0417 26.7927 34.0911C27.0644 34.1405 27.3247 33.9603 27.3741 33.6886L26.3902 33.5097ZM28.6398 32.0392L28.9346 32.443L28.6398 32.0392ZM29.874 31.5747C30.121 31.4512 30.2211 31.1508 30.0976 30.9038C29.9741 30.6568 29.6738 30.5567 29.4268 30.6802L29.874 31.5747ZM26.7024 29.3281C26.4731 29.482 26.412 29.7926 26.5658 30.0219C26.7197 30.2512 27.0303 30.3124 27.2596 30.1585L26.7024 29.3281ZM29.2499 28.7704C29.4224 28.5547 29.3875 28.2401 29.1718 28.0676C28.9562 27.8951 28.6416 27.93 28.4691 28.1457L29.2499 28.7704ZM25.9395 27.4084C25.742 27.6014 25.7383 27.9179 25.9313 28.1154C26.1244 28.3129 26.4409 28.3166 26.6384 28.1235L25.9395 27.4084ZM26.2996 27.7556L26.649 28.1132L26.649 28.1132L26.2996 27.7556ZM28.8819 26.4714C29.1498 26.4044 29.3127 26.133 29.2457 25.8651C29.1787 25.5972 28.9073 25.4343 28.6394 25.5013L28.8819 26.4714ZM25.4249 24.6763C25.1928 24.8258 25.1259 25.1353 25.2755 25.3674C25.425 25.5995 25.7345 25.6664 25.9666 25.5168L25.4249 24.6763ZM28.5436 23.9307C28.7734 23.7775 28.8355 23.4671 28.6823 23.2373C28.5291 23.0075 28.2187 22.9455 27.9889 23.0986L28.5436 23.9307ZM26.1181 22.3527C25.8586 22.4471 25.7247 22.7339 25.819 22.9935C25.9134 23.253 26.2003 23.3869 26.4598 23.2925L26.1181 22.3527ZM28.3485 22.426C28.6209 22.3806 28.8049 22.123 28.7595 21.8506C28.7141 21.5782 28.4565 21.3942 28.1841 21.4396L28.3485 22.426ZM27.1954 19.8577C26.923 19.9031 26.739 20.1607 26.7844 20.4331C26.8298 20.7055 27.0874 20.8895 27.3598 20.8441L27.1954 19.8577ZM31.0345 19.6645C31.3107 19.6645 31.5345 19.4406 31.5345 19.1645C31.5345 18.8884 31.3107 18.6645 31.0345 18.6645V19.6645ZM29.3538 15.6985C29.0777 15.6985 28.8538 15.9223 28.8538 16.1985C28.8538 16.4746 29.0777 16.6985 29.3538 16.6985V15.6985ZM31.0346 16.6985C31.3107 16.6985 31.5346 16.4746 31.5346 16.1985C31.5346 15.9223 31.3107 15.6985 31.0346 15.6985V16.6985ZM15.016 42.8745C13.256 49.6631 13.1133 53.999 13.8238 57.2929C14.533 60.5811 16.0909 62.79 17.5713 65.2572L18.4288 64.7428C16.9091 62.21 15.4671 60.1689 14.8013 57.0821C14.1367 54.001 14.244 49.8369 15.984 43.1255L15.016 42.8745ZM17.5713 65.2572C18.8066 67.3162 21.2643 70.0214 23.7973 72.5419C26.3413 75.0733 29.0011 77.4572 30.6762 78.881L31.3238 78.119C29.6656 76.7095 27.0254 74.3433 24.5027 71.8331C21.9691 69.3119 19.5934 66.6838 18.4288 64.7428L17.5713 65.2572ZM30.5097 78.4019C30.2406 79.7475 30.3195 81.8056 31.4349 83.6466C32.5654 85.5127 34.7164 87.0827 38.4448 87.4969L38.5552 86.5031C35.0836 86.1173 33.2346 84.6873 32.2901 83.1284C31.3305 81.5444 31.2594 79.7525 31.4903 78.5981L30.5097 78.4019ZM38.0257 87.1581C38.3972 88.2728 38.6761 89.2331 38.9182 90.0688C39.1587 90.899 39.3671 91.6213 39.5933 92.2354C40.0538 93.4852 40.618 94.368 41.7764 94.9472L42.2236 94.0528C41.382 93.632 40.9462 93.0148 40.5317 91.8896C40.3204 91.3162 40.1226 90.6323 39.8787 89.7906C39.6364 88.9544 39.3528 87.9772 38.9743 86.8419L38.0257 87.1581ZM41.5358 94.6857C42.3187 96.6431 42.5 98.0792 42.5 98.5H43.5C43.5 97.9208 43.2813 96.3569 42.4642 94.3143L41.5358 94.6857ZM42.6799 98.1159C42.1235 98.5795 41.4109 99.4283 41.0509 100.504C40.6834 101.601 40.6873 102.932 41.584 104.277L42.416 103.723C41.7127 102.668 41.7166 101.665 41.9991 100.821C42.2891 99.9551 42.8765 99.2538 43.3201 98.8841L42.6799 98.1159ZM41.584 104.277C42.0704 105.007 42.3401 105.518 42.518 105.888C42.6106 106.081 42.6732 106.225 42.7417 106.372C42.8055 106.51 42.8737 106.649 42.959 106.777C43.1524 107.067 43.3969 107.244 43.7636 107.409C44.1052 107.563 44.6049 107.729 45.3419 107.974L45.6581 107.026C44.8951 106.771 44.4573 106.625 44.1739 106.497C43.9156 106.381 43.8476 106.308 43.791 106.223C43.7513 106.163 43.7101 106.084 43.6489 105.952C43.5924 105.83 43.5144 105.653 43.4195 105.456C43.2224 105.045 42.9296 104.493 42.416 103.723L41.584 104.277ZM45.3419 107.974C46.0529 108.211 46.8853 108.541 47.7181 108.757C48.5698 108.979 49.4913 109.103 50.4629 108.93C52.4341 108.578 54.4111 107.042 56.4412 103.235L55.5588 102.765C53.5889 106.458 51.8159 107.672 50.2871 107.945C49.5087 108.084 48.7427 107.99 47.9694 107.789C47.1772 107.584 46.4471 107.289 45.6581 107.026L45.3419 107.974ZM29.8841 38.6799C28.6428 37.1903 27.9435 36.1245 27.5993 35.0919C27.2603 34.0749 27.25 33.0412 27.4932 31.5822L26.5068 31.4178C26.25 32.9588 26.2396 34.1751 26.6507 35.4081C27.0564 36.6255 27.8572 37.8097 29.1159 39.3201L29.8841 38.6799ZM27.4932 31.5822C27.7696 29.924 27.2062 28.6685 26.7785 27.5688C26.3489 26.4641 26.0329 25.4824 26.4744 24.1581L25.5257 23.8419C24.9671 25.5176 25.4011 26.7859 25.8465 27.9312C26.2938 29.0815 26.7304 30.076 26.5068 31.4178L27.4932 31.5822ZM26.4744 24.1581C26.7299 23.3913 26.8896 22.7842 27.0159 22.2871C27.1444 21.7811 27.2308 21.4223 27.3449 21.1084C27.551 20.5416 27.8481 20.1139 28.8 19.4L28.2 18.6C27.1519 19.3861 26.699 19.9584 26.4051 20.7666C26.2692 21.1402 26.1681 21.5627 26.0466 22.041C25.9229 22.5283 25.7701 23.1087 25.5257 23.8419L26.4744 24.1581ZM28.8 19.4C29.4509 18.9118 29.6452 18.2882 29.7082 17.6848C29.7382 17.3974 29.7404 17.0943 29.7469 16.8235C29.7537 16.5422 29.765 16.2774 29.8064 16.0155C29.886 15.5111 30.0779 15.0087 30.6021 14.5111C31.1417 13.9987 32.0608 13.466 33.647 12.9779L33.353 12.0221C31.6892 12.534 30.6083 13.1263 29.9136 13.7858C29.2033 14.4601 28.9265 15.1764 28.8186 15.8595C28.7662 16.1913 28.7541 16.5124 28.7472 16.7995C28.7401 17.0971 28.7383 17.3447 28.7136 17.5809C28.6673 18.0243 28.5491 18.3382 28.2 18.6L28.8 19.4ZM15.6584 55.5218C15.184 56.4706 14.7249 57.4429 14.3521 58.437L15.2885 58.7881C15.6429 57.8429 16.0838 56.907 16.5528 55.969L15.6584 55.5218ZM16.9719 58.3397C16.8162 58.5788 16.6553 58.752 16.4478 59.0155C16.2539 59.2618 16.0501 59.5541 15.9224 59.9374L16.871 60.2537C16.945 60.0317 17.0667 59.8461 17.2336 59.634C17.387 59.4391 17.6223 59.1734 17.8099 58.8854L16.9719 58.3397ZM15.9224 59.9374C15.8057 60.2875 15.7519 60.5234 15.6414 60.7997L16.5698 61.171C16.6904 60.8695 16.7899 60.4971 16.871 60.2537L15.9224 59.9374ZM18.4745 60.9438C18.4369 61.3951 18.2268 61.7675 17.9388 62.2276C17.6678 62.6606 17.3061 63.1986 17.1943 63.8692L18.1807 64.0336C18.2531 63.5991 18.4853 63.2393 18.7864 62.7581C19.0707 62.3041 19.4111 61.746 19.471 61.0269L18.4745 60.9438ZM20.2089 62.8329C19.6606 63.8991 19.2038 64.9245 18.5632 65.8397L19.3824 66.4132C20.0748 65.424 20.584 64.2901 21.0982 63.2902L20.2089 62.8329ZM21.5781 64.8419C21.3682 65.3315 21.0443 65.7698 20.6958 66.3618C20.3726 66.9109 20.0546 67.5608 20.0546 68.3015H21.0546C21.0546 67.842 21.2523 67.3877 21.5576 66.8691C21.8376 66.3934 22.2552 65.8005 22.4972 65.2359L21.5781 64.8419ZM22.4374 66.3241C22.2419 67.2915 22.0161 68.2209 21.6014 69.0501L22.4959 69.4973C22.9739 68.5414 23.22 67.5002 23.4176 66.5221L22.4374 66.3241ZM21.6014 69.0501C21.4221 69.4088 21.4388 69.7551 21.4388 69.9823H22.4388C22.4388 69.7011 22.4412 69.6068 22.4959 69.4973L21.6014 69.0501ZM24.231 67.8521C24.1469 68.1141 24.0692 68.4013 23.9927 68.6865C23.9152 68.9757 23.8382 69.265 23.7521 69.5487C23.5772 70.1251 23.3805 70.621 23.1206 70.9675L23.9206 71.5675C24.2912 71.0735 24.5281 70.4353 24.709 69.8391C24.8008 69.5365 24.8823 69.23 24.9586 68.9455C25.036 68.6571 25.1076 68.3929 25.1831 68.1577L24.231 67.8521ZM26.3641 69.4132C25.6671 70.4854 25.0426 71.6459 24.6282 72.889L25.5769 73.2053C25.9559 72.0682 26.5345 70.9858 27.2025 69.9582L26.3641 69.4132ZM28.0235 71.1271C27.8081 71.2467 27.6782 71.4614 27.6047 71.6004C27.5197 71.7613 27.4477 71.9466 27.3878 72.1171C27.3274 72.2888 27.272 72.467 27.2263 72.61C27.1766 72.7657 27.1427 72.8649 27.1187 72.918L28.0298 73.3301C28.0823 73.2141 28.1338 73.0556 28.1789 72.9144C28.2281 72.7606 28.277 72.6028 28.3312 72.4487C28.3858 72.2933 28.4385 72.163 28.4888 72.0679C28.5507 71.9508 28.5669 71.9691 28.5091 72.0012L28.0235 71.1271ZM27.1187 72.918C27.0095 73.1593 26.8905 73.3839 26.76 73.6474C26.6345 73.9009 26.5061 74.1761 26.4078 74.4709L27.3565 74.7871C27.4324 74.5593 27.5362 74.3336 27.6562 74.0911C27.7713 73.8587 27.9113 73.5921 28.0298 73.3301L27.1187 72.918ZM29.5493 72.791C29.4849 73.339 29.2865 73.8783 29.0462 74.4623C28.8142 75.0261 28.5334 75.6513 28.3744 76.2874L29.3446 76.5299C29.4809 75.9848 29.7201 75.4524 29.9709 74.8429C30.2134 74.2536 30.4606 73.6039 30.5425 72.9078L29.5493 72.791ZM31.0717 74.5255C30.8795 74.9597 30.6135 75.3722 30.3261 75.84C30.0483 76.292 29.7539 76.791 29.5716 77.3381L30.5202 77.6543C30.6624 77.2278 30.9001 76.8158 31.178 76.3636C31.4463 75.9271 31.7595 75.4422 31.9861 74.9303L31.0717 74.5255ZM31.6334 79.869C31.6334 79.2795 31.8562 78.8858 32.2186 78.2333L31.3445 77.7477C31.0015 78.3651 30.6334 78.9804 30.6334 79.869H31.6334ZM32.2186 78.2333C32.3146 78.0605 32.4318 77.9147 32.5936 77.6801C32.7383 77.4704 32.9055 77.2046 32.9897 76.889L32.0235 76.6313C31.9857 76.773 31.902 76.9216 31.7704 77.1123C31.6559 77.2783 31.4715 77.519 31.3445 77.7477L32.2186 78.2333ZM32.9897 76.889C33.0217 76.7692 33.0392 76.6758 33.0507 76.6193C33.0644 76.5518 33.0652 76.564 33.0545 76.5866C33.0357 76.626 33.0119 76.6454 33.0184 76.64C33.0348 76.6264 33.074 76.5985 33.1703 76.5408L32.6558 75.6833C32.4773 75.7904 32.2648 75.9189 32.1517 76.1565C32.1021 76.2605 32.0819 76.3649 32.0707 76.4204C32.0572 76.4868 32.0459 76.547 32.0235 76.6313L32.9897 76.889ZM33.4545 78.3601C33.2145 78.8402 32.8986 79.3106 32.5639 79.8937C32.2492 80.4419 31.9386 81.0596 31.8272 81.7002L32.8124 81.8716C32.8921 81.4134 33.126 80.9232 33.4311 80.3916C33.7162 79.8949 34.0958 79.3136 34.3489 78.8073L33.4545 78.3601ZM31.8272 81.7002C31.8199 81.7425 31.7991 81.7955 31.7416 81.9051C31.6943 81.9955 31.603 82.1563 31.547 82.3311L32.4994 82.6359C32.5218 82.5659 32.5569 82.5037 32.6273 82.3694C32.6877 82.2543 32.776 82.0809 32.8124 81.8716L31.8272 81.7002ZM31.547 82.3311L31.5456 82.3356L32.498 82.6404L32.4994 82.6359L31.547 82.3311ZM31.5455 82.3357C31.5286 82.3888 31.486 82.5208 31.4507 82.6051C31.4423 82.6252 31.4385 82.6324 31.4394 82.6307C31.4398 82.6299 31.4452 82.6198 31.4557 82.6049C31.4623 82.5955 31.4915 82.5539 31.5449 82.5123C31.5887 82.4783 31.7562 82.3631 31.9844 82.4315C32.2015 82.4965 32.2793 82.6718 32.2957 82.712C32.3321 82.8014 32.3255 82.8708 32.3255 82.835H31.3255C31.3255 82.8659 31.3241 82.9776 31.3696 83.0894C31.3906 83.1409 31.4739 83.3225 31.6975 83.3894C31.9322 83.4597 32.1069 83.342 32.1586 83.3019C32.2594 83.2235 32.3115 83.1204 32.3194 83.1056C32.3408 83.0661 32.359 83.025 32.3732 82.9911C32.4283 82.8595 32.4839 82.6845 32.498 82.6402L31.5455 82.3357ZM34.517 80.3968C34.173 81.3859 33.5414 82.277 32.9368 83.2664L33.7901 83.7878C34.344 82.8815 35.0711 81.8477 35.4615 80.7253L34.517 80.3968ZM32.9368 83.2664C32.9032 83.3213 32.8789 83.3797 32.8649 83.4145C32.8484 83.4555 32.8322 83.5002 32.8178 83.5407C32.7862 83.6292 32.7607 83.7043 32.7336 83.7718C32.7206 83.8042 32.711 83.8252 32.7049 83.8371C32.6957 83.8551 32.7036 83.8344 32.7326 83.8027C32.7441 83.79 32.8868 83.6315 33.1324 83.6698C33.3704 83.7069 33.4568 83.8921 33.4591 83.8967L32.5647 84.3439C32.5946 84.4037 32.7101 84.616 32.9782 84.6578C33.2538 84.7009 33.4276 84.5245 33.4707 84.4773C33.5728 84.3656 33.6345 84.2121 33.6619 84.1437C33.6985 84.0524 33.7348 83.9464 33.7598 83.8763C33.7951 83.7771 33.8025 83.7675 33.7901 83.7878L32.9368 83.2664ZM35.8927 81.9067C35.5982 82.9373 35.1721 84.0102 34.7301 85.0047L35.6439 85.4109C36.0954 84.395 36.5418 83.2748 36.8542 82.1814L35.8927 81.9067ZM38.2512 83.4564C38.1899 83.8857 38.0187 84.3069 37.8284 84.8239C37.6482 85.3134 37.4553 85.8817 37.4553 86.4931H38.4553C38.4553 86.0773 38.5869 85.6582 38.7669 85.1693C38.9367 84.7079 39.1609 84.1598 39.2412 83.5978L38.2512 83.4564ZM41.5327 84.3457C40.3703 84.7927 39.2341 85.7438 38.6087 86.8382L39.4769 87.3344C39.9838 86.4473 40.9364 85.6464 41.8917 85.279L41.5327 84.3457ZM41.524 86.1752C40.8304 87.0175 40.3275 87.8216 39.8745 88.7984L40.7817 89.2191C41.1994 88.3184 41.657 87.5868 42.2959 86.811L41.524 86.1752ZM39.8745 88.7984C39.7483 89.0705 39.7084 89.3291 39.6823 89.535C39.6542 89.756 39.6424 89.8952 39.5971 90.0441L40.5538 90.3352C40.6306 90.0829 40.6528 89.8307 40.6743 89.6611C40.6978 89.4764 40.7232 89.3452 40.7817 89.2191L39.8745 88.7984ZM39.5971 90.0441C39.5833 90.0894 39.5648 90.1218 39.5098 90.2209C39.4586 90.313 39.3818 90.4548 39.3435 90.6463L40.324 90.8425C40.3303 90.8112 40.3417 90.7825 40.384 90.7065C40.4223 90.6374 40.5025 90.5038 40.5538 90.3352L39.5971 90.0441ZM42.7891 88.772C41.8115 90.1335 40.781 91.5182 40.3374 93.2925L41.3075 93.5351C41.6963 91.98 42.5984 90.752 43.6014 89.3553L42.7891 88.772ZM43.9506 91.5571C43.5498 91.9134 43.2436 92.3746 42.9885 92.8136C42.86 93.0349 42.7385 93.2612 42.6244 93.472C42.5085 93.6861 42.3999 93.8848 42.2898 94.0665L43.145 94.5847C43.2693 94.3796 43.3886 94.161 43.5039 93.948C43.6209 93.7317 43.734 93.5211 43.8532 93.3159C44.0936 92.9022 44.3356 92.5528 44.6149 92.3045L43.9506 91.5571ZM42.2898 94.0665C42.2264 94.171 42.1623 94.2655 42.0836 94.3871C42.0097 94.5012 41.9287 94.6311 41.8582 94.7721L42.7526 95.2193C42.7976 95.1293 42.8542 95.037 42.9232 94.9302C42.9875 94.8309 43.0716 94.7058 43.145 94.5847L42.2898 94.0665ZM44.9064 93.6654C44.2436 94.3735 43.3732 95.1751 42.7844 96.1004L43.628 96.6373C44.1504 95.8165 44.8979 95.1378 45.6365 94.3487L44.9064 93.6654ZM42.7844 96.1004C42.7602 96.1384 42.7395 96.1734 42.7227 96.2019C42.7047 96.2325 42.6933 96.2521 42.6815 96.2711C42.6604 96.305 42.6507 96.3161 42.6439 96.3229L43.3511 97.03C43.4334 96.9476 43.4895 96.8656 43.5312 96.7983C43.5508 96.7667 43.5701 96.7337 43.5845 96.7092C43.6002 96.6825 43.6137 96.6599 43.628 96.6373L42.7844 96.1004ZM42.008 101.136C42.9679 99.9017 44.0506 99.0388 45.2693 97.9825L44.6144 97.2268C43.4346 98.2494 42.2545 99.1901 41.2187 100.522L42.008 101.136ZM45.2693 97.9825C45.3907 97.8773 45.5062 97.7582 45.6103 97.6479C45.72 97.5317 45.8141 97.4286 45.9156 97.3265C46.1231 97.1177 46.2814 96.9987 46.4182 96.953L46.102 96.0044C45.7272 96.1293 45.4287 96.3978 45.2063 96.6216C45.0928 96.7358 44.9785 96.8604 44.8831 96.9615C44.782 97.0686 44.6954 97.1566 44.6144 97.2268L45.2693 97.9825ZM43.5815 101.719C43.3142 101.925 42.9444 102.188 42.6298 102.481C42.3092 102.78 41.9914 103.156 41.8311 103.637L42.7798 103.953C42.8646 103.698 43.0474 103.459 43.3113 103.213C43.5812 102.962 43.8797 102.752 44.1931 102.51L43.5815 101.719ZM43.961 104.81L43.0712 106.194L43.9124 106.735L44.8022 105.351L43.961 104.81ZM46.0952 105.679C45.9375 106.057 45.8101 106.431 45.6869 106.801L46.6356 107.117C46.7583 106.748 46.8758 106.405 47.0183 106.063L46.0952 105.679ZM48.6735 105.958C48.428 106.488 48.195 107.02 47.9728 107.559L48.8975 107.94C49.114 107.414 49.3412 106.896 49.581 106.378L48.6735 105.958ZM50.9468 105.959C50.8945 106.073 50.8286 106.199 50.751 106.346C50.6759 106.489 50.5914 106.65 50.514 106.815C50.3639 107.135 50.2092 107.535 50.2092 107.947H51.2092C51.2092 107.765 51.2825 107.532 51.4195 107.239C51.4856 107.098 51.5594 106.958 51.6362 106.812C51.7105 106.67 51.79 106.519 51.8557 106.376L50.9468 105.959ZM33.2493 38.5625C33.0555 38.6271 32.9242 38.7638 32.8478 38.8589C32.7641 38.963 32.6966 39.0802 32.6442 39.1848C32.5391 39.3946 32.4635 39.6169 32.4268 39.7453L33.3883 40.02C33.4131 39.9332 33.4684 39.7723 33.5383 39.6328C33.5734 39.5627 33.6045 39.5138 33.6272 39.4854C33.6572 39.4482 33.6402 39.4862 33.5655 39.5112L33.2493 38.5625ZM32.4268 39.7453C32.4017 39.8333 32.3366 40.0408 32.2852 40.1571C32.2724 40.1861 32.2685 40.1906 32.2744 40.1814C32.2768 40.1776 32.2922 40.1535 32.3218 40.1242C32.341 40.1053 32.4296 40.0186 32.5826 39.9964C32.79 39.9662 32.9496 40.0712 33.0304 40.1729C33.092 40.2505 33.1093 40.3233 33.1124 40.3356C33.1208 40.3697 33.1165 40.3765 33.1165 40.3221H32.1165C32.1165 40.3933 32.1196 40.4863 32.1413 40.5744C32.151 40.6137 32.1764 40.7055 32.2473 40.7948C32.3374 40.9082 32.5076 41.0178 32.7266 40.986C32.8912 40.962 32.9925 40.8674 33.0251 40.8351C33.0682 40.7925 33.0979 40.7497 33.1152 40.7227C33.151 40.6672 33.1794 40.6075 33.1998 40.5615C33.2808 40.3781 33.3613 40.1145 33.3883 40.02L32.4268 39.7453ZM30.71 37.5845C30.5418 37.8523 30.4099 38.0932 30.229 38.3652C30.0555 38.6262 29.8947 38.8218 29.7459 38.9334L30.3459 39.7334C30.6365 39.5155 30.8741 39.2012 31.0618 38.9188C31.2422 38.6475 31.4343 38.3115 31.5569 38.1163L30.71 37.5845ZM29.6512 35.665C29.2514 36.179 28.9919 36.7109 28.7226 37.2045L29.6005 37.6834C29.8968 37.1402 30.1049 36.7104 30.4406 36.2789L29.6512 35.665ZM28.7226 37.2045C28.6628 37.3142 28.6453 37.3429 28.6471 37.3404C28.649 37.3376 28.6543 37.3298 28.6624 37.3196C28.668 37.3124 28.6874 37.2879 28.7177 37.2607C28.7329 37.2471 28.7627 37.2219 28.8056 37.1978C28.8435 37.1765 28.9318 37.1331 29.0537 37.1341C29.2008 37.1354 29.3367 37.2012 29.4288 37.309C29.505 37.3981 29.529 37.4895 29.5376 37.5301C29.5544 37.6103 29.5463 37.6746 29.5452 37.6843C29.5428 37.706 29.5394 37.722 29.5381 37.7281C29.5353 37.7409 29.5331 37.748 29.5343 37.744C29.5377 37.7323 29.6095 37.5217 29.6442 37.3657L28.668 37.1487C28.6411 37.2698 28.6071 37.3515 28.5744 37.4634C28.5711 37.4748 28.5654 37.4948 28.5606 37.5174C28.5582 37.5283 28.5541 37.5486 28.5513 37.5736C28.5499 37.5867 28.5417 37.6535 28.5589 37.7355C28.5676 37.7769 28.592 37.8689 28.6685 37.9585C28.7609 38.0668 28.8973 38.1328 29.045 38.1341C29.1675 38.1351 29.2565 38.0915 29.2952 38.0697C29.3388 38.0452 29.3696 38.0194 29.3857 38.0049C29.4382 37.9578 29.4711 37.907 29.4739 37.9028C29.5067 37.8547 29.5518 37.7727 29.6005 37.6834L28.7226 37.2045ZM27.9956 35.7271C28.2973 35.5762 28.5244 35.3715 28.7047 35.2046C28.897 35.0266 29.0319 34.8967 29.199 34.7936L28.6739 33.9426C28.405 34.1084 28.1902 34.3182 28.0254 34.4708C27.8487 34.6344 27.7115 34.7511 27.5484 34.8327L27.9956 35.7271ZM29.199 34.7936C29.3451 34.7034 29.5056 34.6195 29.6859 34.5237C29.8584 34.4321 30.0505 34.3288 30.2244 34.2129L29.6697 33.3808C29.5429 33.4654 29.3928 33.5471 29.2168 33.6406C29.0486 33.7299 28.8541 33.8314 28.6739 33.9426L29.199 34.7936ZM27.3741 33.6886C27.3837 33.6358 27.4185 33.5561 27.5135 33.4474C27.6081 33.3393 27.7412 33.2267 27.9059 33.1089C28.0696 32.9918 28.2475 32.8814 28.4277 32.7706C28.5996 32.6649 28.7862 32.5514 28.9346 32.443L28.3449 31.6354C28.2363 31.7147 28.0903 31.8041 27.9039 31.9187C27.726 32.0281 27.52 32.1554 27.3242 32.2955C27.1294 32.4348 26.9272 32.5988 26.7609 32.789C26.595 32.9786 26.4431 33.2188 26.3902 33.5097L27.3741 33.6886ZM28.9346 32.443C29.1787 32.2648 29.3693 32.0394 29.5034 31.8928C29.6526 31.7297 29.7559 31.6337 29.874 31.5747L29.4268 30.6802C29.1305 30.8284 28.9216 31.0473 28.7656 31.2178C28.5945 31.4048 28.487 31.5317 28.3449 31.6354L28.9346 32.443ZM27.2596 30.1585C27.5351 29.9737 27.841 29.8201 28.2302 29.5869C28.5807 29.3769 28.9759 29.1129 29.2499 28.7704L28.4691 28.1457C28.3151 28.3381 28.0557 28.5258 27.7163 28.7291C27.4156 28.9093 26.9963 29.1309 26.7024 29.3281L27.2596 30.1585ZM26.6384 28.1235L26.649 28.1132L25.9501 27.398L25.9395 27.4084L26.6384 28.1235ZM26.649 28.1132C26.9672 27.8022 27.3459 27.4327 27.7492 27.1136C28.1604 26.7883 28.5499 26.5544 28.8819 26.4714L28.6394 25.5013C28.0969 25.6369 27.5716 25.979 27.1288 26.3294C26.6781 26.6859 26.2634 27.0918 25.9501 27.398L26.649 28.1132ZM25.9666 25.5168C26.3814 25.2495 26.8067 24.9983 27.2419 24.7389C27.674 24.4814 28.1146 24.2167 28.5436 23.9307L27.9889 23.0986C27.5834 23.369 27.1626 23.6221 26.73 23.8798C26.3007 24.1357 25.8579 24.3972 25.4249 24.6763L25.9666 25.5168ZM26.4598 23.2925C26.8469 23.1517 27.2118 22.929 27.5032 22.7679C27.8164 22.5947 28.0776 22.4711 28.3485 22.426L28.1841 21.4396C27.7331 21.5148 27.3447 21.7128 27.0192 21.8928C26.6719 22.0849 26.4091 22.2469 26.1181 22.3527L26.4598 23.2925ZM27.3598 20.8441C28.0661 20.7264 28.7568 20.3944 29.3474 20.1376C29.9732 19.8655 30.5103 19.6645 31.0345 19.6645V18.6645C30.2785 18.6645 29.5666 18.9518 28.9487 19.2205C28.2957 19.5044 27.7481 19.7656 27.1954 19.8577L27.3598 20.8441ZM29.3538 16.6985H31.0346V15.6985H29.3538V16.6985Z" fill="#FDFEFF"/>
</g>
<defs>
<clipPath id="clip0_4_47811">
<rect width="87" height="80" fill="white"/>
</clipPath>
</defs>
</svg>
