<svg width="76" height="76" viewBox="0 0 76 76" fill="none" xmlns="http://www.w3.org/2000/svg">
<g filter="url(#filter0_dd_1315_6002)">
<rect x="5.90039" y="6" width="64" height="64" rx="32" fill="#FDFEFF"/>
<path d="M31.2337 25.9998C27.5523 25.9998 24.5669 28.982 24.5669 32.6615C24.5669 35.6316 25.7336 42.681 37.2178 49.807C37.4235 49.9333 37.6596 50.0001 37.9004 50.0001C38.1412 50.0001 38.3774 49.9333 38.5831 49.807C50.0673 42.681 51.234 35.6316 51.234 32.6615C51.234 28.982 48.2486 25.9998 44.5672 25.9998C40.8858 25.9998 37.9004 30.0372 37.9004 30.0372C37.9004 30.0372 34.9151 25.9998 31.2337 25.9998Z" stroke="#03A400" stroke-width="2.66671" stroke-linecap="round" stroke-linejoin="round"/>
</g>
<defs>
<filter id="filter0_dd_1315_6002" x="0.567057" y="0.666667" width="74.6667" height="74.6667" filterUnits="userSpaceOnUse" color-interpolation-filters="sRGB">
<feFlood flood-opacity="0" result="BackgroundImageFix"/>
<feColorMatrix in="SourceAlpha" type="matrix" values="0 0 0 0 0 0 0 0 0 0 0 0 0 0 0 0 0 0 127 0" result="hardAlpha"/>
<feOffset dx="1.77778" dy="1.77778"/>
<feGaussianBlur stdDeviation="1.77778"/>
<feColorMatrix type="matrix" values="0 0 0 0 0.0313726 0 0 0 0 0.0313726 0 0 0 0 0.0666667 0 0 0 0.08 0"/>
<feBlend mode="multiply" in2="BackgroundImageFix" result="effect1_dropShadow_1315_6002"/>
<feColorMatrix in="SourceAlpha" type="matrix" values="0 0 0 0 0 0 0 0 0 0 0 0 0 0 0 0 0 0 127 0" result="hardAlpha"/>
<feOffset/>
<feGaussianBlur stdDeviation="2.66667"/>
<feColorMatrix type="matrix" values="0 0 0 0 0.0313726 0 0 0 0 0.0313726 0 0 0 0 0.0666667 0 0 0 0.04 0"/>
<feBlend mode="multiply" in2="effect1_dropShadow_1315_6002" result="effect2_dropShadow_1315_6002"/>
<feBlend mode="normal" in="SourceGraphic" in2="effect2_dropShadow_1315_6002" result="shape"/>
</filter>
</defs>
</svg>
