<svg width="23" height="23" viewBox="0 0 23 23" fill="none" xmlns="http://www.w3.org/2000/svg">
<path d="M12.7138 4.90495H13.7138H12.7138ZM8.80886 1V0V1ZM1 19.6063L0.000133336 19.59C-0.0063448 19.9867 0.22227 20.3496 0.582811 20.5151L1 19.6063ZM8.80886 11.9239V12.9239V11.9239ZM16.6177 19.6063L17.0345 20.5153C17.3953 20.3499 17.6241 19.9868 17.6176 19.59L16.6177 19.6063ZM8.80886 21.3058L8.81022 20.3058H8.80886V21.3058ZM20 6C20 5.44772 19.5523 5 19 5C18.4477 5 18 5.44772 18 6H20ZM18 12C18 12.5523 18.4477 13 19 13C19.5523 13 20 12.5523 20 12H18ZM22 10C22.5523 10 23 9.55229 23 9C23 8.44772 22.5523 8 22 8V10ZM16 8C15.4477 8 15 8.44771 15 9C15 9.55228 15.4477 10 16 10V8ZM11.7138 4.90495C11.7138 5.67539 11.4078 6.41428 10.863 6.95907L12.2772 8.37328C13.197 7.45342 13.7138 6.20583 13.7138 4.90495H11.7138ZM10.863 6.95907C10.3182 7.50385 9.57931 7.80991 8.80886 7.80991V9.80991C10.1097 9.80991 11.3573 9.29314 12.2772 8.37328L10.863 6.95907ZM8.80886 7.80991C8.03842 7.80991 7.29954 7.50385 6.75475 6.95907L5.34054 8.37328C6.2604 9.29314 7.50799 9.80991 8.80886 9.80991V7.80991ZM6.75475 6.95907C6.20997 6.41428 5.90391 5.6754 5.90391 4.90495H3.90391C3.90391 6.20583 4.42068 7.45342 5.34054 8.37328L6.75475 6.95907ZM5.90391 4.90495C5.90391 4.13451 6.20997 3.39563 6.75475 2.85084L5.34054 1.43663C4.42068 2.35648 3.90391 3.60408 3.90391 4.90495H5.90391ZM6.75475 2.85084C7.29954 2.30606 8.03842 2 8.80886 2V0C7.50799 0 6.2604 0.51677 5.34054 1.43663L6.75475 2.85084ZM8.80886 2C9.57931 2 10.3182 2.30606 10.863 2.85084L12.2772 1.43663C11.3573 0.51677 10.1097 0 8.80886 0V2ZM10.863 2.85084C11.4078 3.39563 11.7138 4.13451 11.7138 4.90495H13.7138C13.7138 3.60408 13.197 2.35648 12.2772 1.43663L10.863 2.85084ZM1.99987 19.6227C2.02904 17.8361 2.75925 16.1325 4.03301 14.8794L2.63039 13.4537C0.982541 15.0748 0.0378806 17.2787 0.000133336 19.59L1.99987 19.6227ZM4.03301 14.8794C5.30677 13.6262 7.02203 12.9239 8.80886 12.9239V10.9239C6.49725 10.9239 4.27824 11.8325 2.63039 13.4537L4.03301 14.8794ZM8.80886 12.9239C10.5957 12.9239 12.311 13.6262 13.5847 14.8794L14.9873 13.4537C13.3395 11.8325 11.1205 10.9239 8.80886 10.9239V12.9239ZM13.5847 14.8794C14.8585 16.1325 15.5887 17.8361 15.6179 19.6227L17.6176 19.59C17.5798 17.2787 16.6352 15.0748 14.9873 13.4537L13.5847 14.8794ZM16.2009 18.6973C13.8823 19.7605 11.361 20.3092 8.81022 20.3058L8.80751 22.3058C11.6469 22.3096 14.4535 21.6988 17.0345 20.5153L16.2009 18.6973ZM8.80886 20.3058C6.16912 20.3058 3.66624 19.7299 1.41719 18.6975L0.582811 20.5151C3.08843 21.6653 5.87546 22.3058 8.80886 22.3058V20.3058ZM18 6V9H20V6H18ZM18 9V12H20V9H18ZM22 8L19 8V10L22 10V8ZM19 8L16 8V10H19V8Z" fill="#26262E"/>
</svg>
