<svg width="17" height="22" viewBox="0 0 17 22" fill="none" xmlns="http://www.w3.org/2000/svg">
<path d="M2.09524 7.33333H11.5238V5.2381C11.5238 4.36508 11.2183 3.62302 10.6071 3.0119C9.99603 2.40079 9.25397 2.09524 8.38095 2.09524C7.50794 2.09524 6.76587 2.40079 6.15476 3.0119C5.54365 3.62302 5.2381 4.36508 5.2381 5.2381H3.14286C3.14286 3.78889 3.65375 2.5534 4.67552 1.53162C5.6966 0.51054 6.93175 0 8.38095 0C9.83016 0 11.0657 0.51054 12.0874 1.53162C13.1085 2.5534 13.619 3.78889 13.619 5.2381V7.33333H14.6667C15.2429 7.33333 15.7363 7.53832 16.147 7.94829C16.5569 8.35895 16.7619 8.85238 16.7619 9.42857V19.9048C16.7619 20.481 16.5569 20.9744 16.147 21.385C15.7363 21.795 15.2429 22 14.6667 22H2.09524C1.51905 22 1.02597 21.795 0.616 21.385C0.205333 20.9744 0 20.481 0 19.9048V9.42857C0 8.85238 0.205333 8.35895 0.616 7.94829C1.02597 7.53832 1.51905 7.33333 2.09524 7.33333ZM2.09524 19.9048H14.6667V9.42857H2.09524V19.9048ZM8.38095 16.7619C8.95714 16.7619 9.45057 16.5569 9.86124 16.147C10.2712 15.7363 10.4762 15.2429 10.4762 14.6667C10.4762 14.0905 10.2712 13.597 9.86124 13.1864C9.45057 12.7764 8.95714 12.5714 8.38095 12.5714C7.80476 12.5714 7.31168 12.7764 6.90171 13.1864C6.49105 13.597 6.28571 14.0905 6.28571 14.6667C6.28571 15.2429 6.49105 15.7363 6.90171 16.147C7.31168 16.5569 7.80476 16.7619 8.38095 16.7619ZM2.09524 19.9048V9.42857V19.9048Z" fill="#26262E"/>
</svg>
