<svg width="21" height="22" viewBox="0 0 21 22" fill="none" xmlns="http://www.w3.org/2000/svg">
<path d="M16.8367 15.2653C16.037 15.2653 15.299 15.5459 14.7209 16.0145L8.90663 11.8082C9.00399 11.2738 9.00399 10.7262 8.90663 10.1918L14.7209 5.98546C15.299 6.45408 16.037 6.73469 16.8367 6.73469C18.6944 6.73469 20.2041 5.225 20.2041 3.36735C20.2041 1.50969 18.6944 0 16.8367 0C14.9791 0 13.4694 1.50969 13.4694 3.36735C13.4694 3.69286 13.5143 4.00434 13.6013 4.30179L8.07883 8.30051C7.25944 7.21454 5.9574 6.5102 4.4898 6.5102C2.00918 6.5102 0 8.51939 0 11C0 13.4806 2.00918 15.4898 4.4898 15.4898C5.9574 15.4898 7.25944 14.7855 8.07883 13.6995L13.6013 17.6982C13.5143 17.9957 13.4694 18.3099 13.4694 18.6327C13.4694 20.4903 14.9791 22 16.8367 22C18.6944 22 20.2041 20.4903 20.2041 18.6327C20.2041 16.775 18.6944 15.2653 16.8367 15.2653ZM16.8367 1.90816C17.6421 1.90816 18.2959 2.56199 18.2959 3.36735C18.2959 4.1727 17.6421 4.82653 16.8367 4.82653C16.0314 4.82653 15.3776 4.1727 15.3776 3.36735C15.3776 2.56199 16.0314 1.90816 16.8367 1.90816ZM4.4898 13.4694C3.12883 13.4694 2.02041 12.361 2.02041 11C2.02041 9.63903 3.12883 8.53061 4.4898 8.53061C5.85077 8.53061 6.95918 9.63903 6.95918 11C6.95918 12.361 5.85077 13.4694 4.4898 13.4694ZM16.8367 20.0918C16.0314 20.0918 15.3776 19.438 15.3776 18.6327C15.3776 17.8273 16.0314 17.1735 16.8367 17.1735C17.6421 17.1735 18.2959 17.8273 18.2959 18.6327C18.2959 19.438 17.6421 20.0918 16.8367 20.0918Z" fill="#26262E"/>
</svg>
