<svg width="16" height="16" viewBox="0 0 16 16" fill="none" xmlns="http://www.w3.org/2000/svg">
<path d="M8.81514 7.67391L10.8522 9.71095C11.0016 9.86033 11.0763 10.0505 11.0763 10.2813C11.0763 10.5122 11.0016 10.7023 10.8522 10.8517C10.7028 11.0011 10.5127 11.0758 10.2818 11.0758C10.0509 11.0758 9.86082 11.0011 9.71144 10.8517L7.42996 8.57021C7.34847 8.48873 7.28736 8.39692 7.24662 8.2948C7.20588 8.19322 7.18551 8.08811 7.18551 7.97947V4.74058C7.18551 4.50971 7.26373 4.31606 7.42018 4.15962C7.57608 4.00371 7.76946 3.92576 8.00033 3.92576C8.23119 3.92576 8.42484 4.00371 8.58129 4.15962C8.73719 4.31606 8.81514 4.50971 8.81514 4.74058V7.67391ZM8.00033 15.3332C6.35712 15.3332 4.88366 14.8475 3.57995 13.8763C2.27625 12.9056 1.40033 11.6393 0.952177 10.0776C0.884276 9.83317 0.908177 9.60231 1.02388 9.38502C1.13904 9.16774 1.31884 9.03194 1.56329 8.97761C1.79415 8.92329 2.00139 8.97408 2.18499 9.12999C2.36805 9.28643 2.49354 9.48008 2.56144 9.71095C2.91452 10.906 3.59707 11.8702 4.60907 12.6035C5.62052 13.3369 6.75094 13.7035 8.00033 13.7035C9.58921 13.7035 10.9369 13.15 12.0434 12.0429C13.1505 10.9364 13.704 9.58873 13.704 7.99984C13.704 6.41095 13.1505 5.06297 12.0434 3.95591C10.9369 2.84939 9.58921 2.29613 8.00033 2.29613C7.06329 2.29613 6.18736 2.51342 5.37255 2.94799C4.55773 3.38255 3.87193 3.98008 3.31514 4.74058H4.74107C4.97193 4.74058 5.16559 4.81853 5.32203 4.97443C5.47793 5.13087 5.55588 5.32453 5.55588 5.55539C5.55588 5.78626 5.47793 5.97964 5.32203 6.13554C5.16559 6.29199 4.97193 6.37021 4.74107 6.37021H1.48181C1.25094 6.37021 1.05756 6.29199 0.901659 6.13554C0.745214 5.97964 0.666992 5.78626 0.666992 5.55539V2.29613C0.666992 2.06527 0.745214 1.87162 0.901659 1.71517C1.05756 1.55927 1.25094 1.48132 1.48181 1.48132C1.71267 1.48132 1.90633 1.55927 2.06277 1.71517C2.21867 1.87162 2.29662 2.06527 2.29662 2.29613V3.39613C2.98921 2.527 3.83472 1.85478 4.83314 1.37947C5.83102 0.904158 6.88674 0.666504 8.00033 0.666504C9.01884 0.666504 9.97299 0.859887 10.8628 1.24665C11.752 1.63396 12.5261 2.1568 13.185 2.81517C13.8434 3.47408 14.3662 4.24816 14.7535 5.13739C15.1403 6.02717 15.3337 6.98132 15.3337 7.99984C15.3337 9.01836 15.1403 9.97223 14.7535 10.8615C14.3662 11.7512 13.8434 12.5253 13.185 13.1837C12.5261 13.8426 11.752 14.3657 10.8628 14.753C9.97299 15.1398 9.01884 15.3332 8.00033 15.3332Z" fill="#26262E"/>
</svg>
