<svg width="51" height="73" viewBox="0 0 51 73" fill="none" xmlns="http://www.w3.org/2000/svg">
<path d="M21.1108 53.6704C20.5668 53.6704 20.0909 53.4991 19.683 53.1563C19.275 52.7451 19.0711 52.231 19.0711 51.6141C19.0711 51.0657 19.0711 50.5174 19.0711 49.969C19.0711 49.4207 19.0711 48.8723 19.0711 48.3239C19.343 45.6507 20.0569 43.2859 21.2127 41.2296C22.4365 39.1047 23.8303 37.1854 25.3941 35.4718C27.0258 33.6897 28.6236 32.0103 30.1874 30.4338C31.8191 28.8573 33.1789 27.315 34.2667 25.807C35.4226 24.2305 36.1024 22.6197 36.3064 20.9746C36.5104 18.9869 36.1024 17.3075 35.0826 15.9366C34.1308 14.5657 32.805 13.5376 31.1052 12.8521C29.4735 12.0981 27.7397 11.7211 25.904 11.7211C22.7085 11.7211 20.0909 12.5094 18.0512 14.0859C16.0115 15.6624 14.6178 18.1986 13.8699 21.6944C13.6659 22.5169 13.3259 23.1338 12.85 23.5451C12.3741 23.8878 11.7282 24.0592 10.9123 24.0592H2.24365C1.63175 24.0592 1.08783 23.8535 0.611906 23.4423C0.203968 22.9624 0 22.3455 0 21.5916C0.0679895 18.8498 0.679895 16.2108 1.83572 13.6746C3.05953 11.07 4.79326 8.73944 7.03692 6.6831C9.34856 4.62676 12.1361 3.01597 15.3996 1.85071C18.6631 0.616902 22.4026 0 26.6179 0C31.2412 0 35.1166 0.616902 38.2441 1.85071C41.4396 3.01597 43.9552 4.55822 45.791 6.47747C47.6947 8.39672 49.0545 10.4873 49.8703 12.7493C50.6862 14.9427 51.0601 17.1019 50.9922 19.2268C50.8562 21.8315 50.2783 24.162 49.2584 26.2183C48.2386 28.2747 46.9808 30.1939 45.485 31.9761C43.9892 33.6897 42.4595 35.4033 40.8957 37.1169C39.3319 38.762 37.9382 40.4413 36.7144 42.1549C35.5585 43.8685 34.7766 45.685 34.3687 47.6042C34.2327 48.2211 34.1307 48.838 34.0628 49.4549C33.9948 50.0033 33.9268 50.5516 33.8588 51.1C33.5868 51.9225 33.2469 52.5737 32.8389 53.0535C32.431 53.4648 31.8531 53.6704 31.1052 53.6704H21.1108ZM20.8048 73C20.1249 73 19.547 72.7601 19.0711 72.2803C18.5951 71.8005 18.3572 71.2178 18.3572 70.5324V61.5873C18.3572 60.8333 18.5951 60.2164 19.0711 59.7366C19.547 59.2568 20.1249 59.0169 20.8048 59.0169H30.6973C31.4452 59.0169 32.0571 59.2568 32.533 59.7366C33.0089 60.2164 33.2469 60.8333 33.2469 61.5873V70.5324C33.2469 71.2178 33.0089 71.8005 32.533 72.2803C32.0571 72.7601 31.4452 73 30.6973 73H20.8048Z" fill="#FF8E0A"/>
</svg>
