<svg width="18" height="24" viewBox="0 0 18 24" fill="none" xmlns="http://www.w3.org/2000/svg">
<path d="M17 10.6C17 12.5803 16.1571 14.4795 14.6569 15.8797C13.1566 17.28 11.1217 18.0667 9 18.0667M9 18.0667C6.87827 18.0667 4.84344 17.28 3.34315 15.8797C1.84285 14.4795 1 12.5803 1 10.6M9 18.0667V22.3333M9 22.3333H4.42857M9 22.3333H13.5714M9 13.8C8.09069 13.8 7.21862 13.4629 6.57563 12.8627C5.93265 12.2626 5.57143 11.4487 5.57143 10.6V4.2C5.57143 3.35131 5.93265 2.53737 6.57563 1.93726C7.21862 1.33714 8.09069 1 9 1C9.90931 1 10.7814 1.33714 11.4244 1.93726C12.0673 2.53737 12.4286 3.35131 12.4286 4.2V10.6C12.4286 11.4487 12.0673 12.2626 11.4244 12.8627C10.7814 13.4629 9.90931 13.8 9 13.8V13.8Z" stroke="#BFC0C1" stroke-width="2" stroke-linecap="round" stroke-linejoin="round"/>
</svg>
