<svg width="24" height="24" viewBox="0 0 24 24" fill="none" xmlns="http://www.w3.org/2000/svg">
<path d="M1.33333 7.33321H6C6.98133 7.33321 7.85733 7.85455 8.468 8.66788C8.90172 7.86518 9.4353 7.12059 10.056 6.45188C8.98533 5.35455 7.568 4.66655 6 4.66655H1.33333C0.979711 4.66655 0.640573 4.80702 0.390524 5.05707C0.140476 5.30712 0 5.64626 0 5.99988C0 6.3535 0.140476 6.69264 0.390524 6.94269C0.640573 7.19274 0.979711 7.33321 1.33333 7.33321ZM11.58 11.4812C12.3147 9.27188 14.588 7.33321 16.4453 7.33321H18.896L17.172 9.05721C17.0482 9.18101 16.95 9.32797 16.883 9.48971C16.816 9.65145 16.7815 9.82481 16.7815 9.99988C16.7815 10.1749 16.816 10.3483 16.883 10.51C16.95 10.6718 17.0482 10.8188 17.172 10.9425C17.2958 11.0663 17.4428 11.1645 17.6045 11.2315C17.7662 11.2985 17.9396 11.333 18.1147 11.333C18.2897 11.333 18.4631 11.2985 18.6248 11.2315C18.7866 11.1645 18.9335 11.0663 19.0573 10.9425L24 5.99988L19.0573 1.05721C18.9335 0.933421 18.7866 0.835223 18.6248 0.768227C18.4631 0.70123 18.2897 0.666748 18.1147 0.666748C17.9396 0.666748 17.7662 0.70123 17.6045 0.768227C17.4428 0.835223 17.2958 0.933421 17.172 1.05721C17.0482 1.18101 16.95 1.32797 16.883 1.48971C16.816 1.65146 16.7815 1.82481 16.7815 1.99988C16.7815 2.17495 16.816 2.3483 16.883 2.51005C16.95 2.67179 17.0482 2.81875 17.172 2.94255L18.896 4.66655H16.4453C13.4133 4.66655 10.164 7.28921 9.04933 10.6385L8.42 12.5199C7.56533 15.0879 5.65733 16.6665 4.66667 16.6665H1.33333C0.979711 16.6665 0.640573 16.807 0.390524 17.0571C0.140476 17.3071 0 17.6463 0 17.9999C0 18.3535 0.140476 18.6926 0.390524 18.9427C0.640573 19.1927 0.979711 19.3332 1.33333 19.3332H4.66667C7.116 19.3332 9.81733 16.7665 10.9507 13.3612L11.58 11.4812ZM17.172 13.0572C17.0481 13.1809 16.9498 13.3279 16.8827 13.4896C16.8156 13.6514 16.7811 13.8248 16.7811 13.9999C16.7811 14.175 16.8156 14.3484 16.8827 14.5101C16.9498 14.6719 17.0481 14.8188 17.172 14.9425L18.896 16.6665H15.7787C14.088 16.6665 12.672 15.4785 12.1907 13.8559C11.8359 14.8864 11.3472 15.8659 10.7373 16.7692C11.9187 18.3185 13.728 19.3332 15.7787 19.3332H18.896L17.172 21.0572C17.0482 21.181 16.95 21.328 16.883 21.4897C16.816 21.6515 16.7815 21.8248 16.7815 21.9999C16.7815 22.1749 16.816 22.3483 16.883 22.51C16.95 22.6718 17.0482 22.8188 17.172 22.9425C17.2958 23.0663 17.4428 23.1645 17.6045 23.2315C17.7662 23.2985 17.9396 23.333 18.1147 23.333C18.2897 23.333 18.4631 23.2985 18.6248 23.2315C18.7866 23.1645 18.9335 23.0663 19.0573 22.9425L24 17.9999L19.0573 13.0572C18.9336 12.9333 18.7867 12.835 18.6249 12.7679C18.4632 12.7008 18.2898 12.6663 18.1147 12.6663C17.9396 12.6663 17.7662 12.7008 17.6044 12.7679C17.4427 12.835 17.2957 12.9333 17.172 13.0572Z" fill="#26262E"/>
</svg>
