<svg width="18" height="22" viewBox="0 0 18 22" fill="none" xmlns="http://www.w3.org/2000/svg">
<path d="M16.5 0.5H3.9375C3.83437 0.5 3.75 0.584375 3.75 0.6875V2C3.75 2.10312 3.83437 2.1875 3.9375 2.1875H15.5625V18.3125C15.5625 18.4156 15.6469 18.5 15.75 18.5H17.0625C17.1656 18.5 17.25 18.4156 17.25 18.3125V1.25C17.25 0.835156 16.9148 0.5 16.5 0.5ZM13.5 3.5H1.5C1.08516 3.5 0.75 3.83516 0.75 4.25V16.6883C0.75 16.8875 0.829687 17.0773 0.970312 17.218L5.03203 21.2797C5.08359 21.3312 5.14219 21.3734 5.20547 21.4086V21.4531H5.30391C5.38594 21.4836 5.47266 21.5 5.56172 21.5H13.5C13.9148 21.5 14.25 21.1648 14.25 20.75V4.25C14.25 3.83516 13.9148 3.5 13.5 3.5ZM5.20312 19.0672L3.18516 17.0469H5.20312V19.0672ZM12.5625 19.8125H6.70312V16.4844C6.70312 15.9664 6.28359 15.5469 5.76562 15.5469H2.4375V5.1875H12.5625V19.8125Z" fill="#26262E"/>
</svg>
