<svg width="16" height="16" viewBox="0 0 16 16" fill="none" xmlns="http://www.w3.org/2000/svg">
<path d="M8.81514 7.67464L10.8522 9.71168C11.0016 9.86106 11.0763 10.0512 11.0763 10.2821C11.0763 10.5129 11.0016 10.703 10.8522 10.8524C10.7028 11.0018 10.5127 11.0765 10.2818 11.0765C10.0509 11.0765 9.86082 11.0018 9.71144 10.8524L7.42996 8.57094C7.34847 8.48946 7.28736 8.39766 7.24662 8.29553C7.20588 8.19395 7.18551 8.08884 7.18551 7.9802V4.74131C7.18551 4.51045 7.26373 4.31679 7.42018 4.16035C7.57608 4.00445 7.76946 3.9265 8.00033 3.9265C8.23119 3.9265 8.42484 4.00445 8.58129 4.16035C8.73719 4.31679 8.81514 4.51045 8.81514 4.74131V7.67464ZM8.00033 15.3339C6.35712 15.3339 4.88366 14.8483 3.57995 13.877C2.27625 12.9063 1.40033 11.6401 0.952177 10.0783C0.884276 9.8339 0.908177 9.60304 1.02388 9.38575C1.13904 9.16847 1.31884 9.03267 1.56329 8.97835C1.79415 8.92403 2.00139 8.97482 2.18499 9.13072C2.36805 9.28716 2.49354 9.48082 2.56144 9.71168C2.91452 10.9067 3.59707 11.8709 4.60907 12.6043C5.62052 13.3376 6.75094 13.7043 8.00033 13.7043C9.58921 13.7043 10.9369 13.1507 12.0434 12.0437C13.1505 10.9372 13.704 9.58946 13.704 8.00057C13.704 6.41168 13.1505 5.06371 12.0434 3.95664C10.9369 2.85013 9.58921 2.29687 8.00033 2.29687C7.06329 2.29687 6.18736 2.51415 5.37255 2.94872C4.55773 3.38329 3.87193 3.98082 3.31514 4.74131H4.74107C4.97193 4.74131 5.16559 4.81926 5.32203 4.97516C5.47793 5.13161 5.55588 5.32526 5.55588 5.55613C5.55588 5.78699 5.47793 5.98037 5.32203 6.13627C5.16559 6.29272 4.97193 6.37094 4.74107 6.37094H1.48181C1.25094 6.37094 1.05756 6.29272 0.901659 6.13627C0.745214 5.98037 0.666992 5.78699 0.666992 5.55613V2.29687C0.666992 2.066 0.745214 1.87235 0.901659 1.7159C1.05756 1.56 1.25094 1.48205 1.48181 1.48205C1.71267 1.48205 1.90633 1.56 2.06277 1.7159C2.21867 1.87235 2.29662 2.066 2.29662 2.29687V3.39687C2.98921 2.52773 3.83472 1.85551 4.83314 1.3802C5.83102 0.904891 6.88674 0.667236 8.00033 0.667236C9.01884 0.667236 9.97299 0.860619 10.8628 1.24738C11.752 1.63469 12.5261 2.15753 13.185 2.8159C13.8434 3.47482 14.3662 4.24889 14.7535 5.13813C15.1403 6.0279 15.3337 6.98205 15.3337 8.00057C15.3337 9.01909 15.1403 9.97296 14.7535 10.8622C14.3662 11.752 13.8434 12.5261 13.185 13.1844C12.5261 13.8433 11.752 14.3664 10.8628 14.7538C9.97299 15.1405 9.01884 15.3339 8.00033 15.3339Z" fill="#26262E"/>
</svg>
