<svg width="52" height="43" viewBox="0 0 52 43" fill="none" xmlns="http://www.w3.org/2000/svg">
<path d="M25.8046 17.2002C28.0855 17.2002 30.273 16.2941 31.8858 14.6813C33.4986 13.0684 34.4047 10.881 34.4047 8.60009C34.4047 6.3192 33.4986 4.13174 31.8858 2.51891C30.273 0.906079 28.0855 0 25.8046 0C23.5237 0 21.3363 0.906079 19.7234 2.51891C18.1106 4.13174 17.2045 6.3192 17.2045 8.60009C17.2045 10.881 18.1106 13.0684 19.7234 14.6813C21.3363 16.2941 23.5237 17.2002 25.8046 17.2002V17.2002ZM14.3378 14.3335C14.3378 15.8541 13.7338 17.3124 12.6586 18.3876C11.5833 19.4628 10.125 20.0669 8.60444 20.0669C7.08385 20.0669 5.62553 19.4628 4.55031 18.3876C3.47509 17.3124 2.87104 15.8541 2.87104 14.3335C2.87104 12.8129 3.47509 11.3546 4.55031 10.2794C5.62553 9.20414 7.08385 8.60009 8.60444 8.60009C10.125 8.60009 11.5833 9.20414 12.6586 10.2794C13.7338 11.3546 14.3378 12.8129 14.3378 14.3335V14.3335ZM1.40903 35.3349C0.919642 35.0568 0.55316 34.6043 0.382749 34.0678C-0.122347 32.4319 -0.127644 30.6824 0.367537 29.0434C0.862718 27.4045 1.83584 25.9506 3.16228 24.868C4.48872 23.7854 6.10811 23.1234 7.81306 22.9667C9.51802 22.81 11.2309 23.1658 12.7325 23.9885C9.64685 27.0208 7.71557 31.0344 7.27142 35.3378C7.20549 35.9742 7.23129 36.6048 7.34309 37.2126C5.25086 37.0317 3.22449 36.3905 1.40903 35.3349V35.3349ZM44.2661 37.2097C46.3582 37.0297 48.3845 36.3895 50.2002 35.3349C50.6885 35.0562 51.0539 34.6038 51.2236 34.0678C51.7295 32.4317 51.7354 30.6818 51.2406 29.0423C50.7458 27.4028 49.7727 25.9483 48.4461 24.8653C47.1195 23.7823 45.4997 23.12 43.7944 22.9633C42.089 22.8066 40.3757 23.1625 38.8739 23.9856C41.9622 27.0178 43.8956 31.0327 44.3407 35.3378C44.4046 35.9631 44.3795 36.5943 44.2661 37.2126V37.2097ZM48.7382 14.3335C48.7382 15.8541 48.1341 17.3124 47.0589 18.3876C45.9837 19.4628 44.5254 20.0669 43.0048 20.0669C41.4842 20.0669 40.0259 19.4628 38.9507 18.3876C37.8755 17.3124 37.2714 15.8541 37.2714 14.3335C37.2714 12.8129 37.8755 11.3546 38.9507 10.2794C40.0259 9.20414 41.4842 8.60009 43.0048 8.60009C44.5254 8.60009 45.9837 9.20414 47.0589 10.2794C48.1341 11.3546 48.7382 12.8129 48.7382 14.3335V14.3335ZM12.3426 37.8117C12.0599 37.5585 11.8407 37.2424 11.7028 36.8888C11.5648 36.5352 11.512 36.1541 11.5485 35.7764C11.9132 32.2489 13.5725 28.9817 16.2059 26.6065C18.8393 24.2313 22.2597 22.9167 25.806 22.9167C29.3524 22.9167 32.7728 24.2313 35.4062 26.6065C38.0396 28.9817 39.6989 32.2489 40.0636 35.7764C40.1003 36.1542 40.0476 36.5353 39.9097 36.8889C39.7717 37.2425 39.5524 37.5587 39.2695 37.8117C35.5835 41.157 30.7823 43.0072 25.8046 43.0004C20.8279 43.0067 16.0277 41.1566 12.3426 37.8117V37.8117Z" fill="#26262E"/>
</svg>
