<svg width="51" height="45" viewBox="0 0 51 45" fill="none" xmlns="http://www.w3.org/2000/svg">
<path d="M39.6233 37.2437C42.6495 37.4874 45.694 37.1033 48.5604 36.116C48.6698 34.7868 48.3951 33.4542 47.768 32.2723C47.141 31.0905 46.1872 30.1078 45.0171 29.4379C43.847 28.768 42.5083 28.4382 41.1559 28.4868C39.8036 28.5354 38.4928 28.9603 37.3752 29.7124M39.6209 37.2414L39.6233 37.3144C39.6233 37.8441 39.5946 38.3667 39.5349 38.8823C35.1997 41.3334 30.2874 42.6194 25.2895 42.6115C20.1054 42.6115 15.2391 41.2554 11.0441 38.8823C10.9826 38.3375 10.9531 37.7896 10.9557 37.2414M39.6233 37.2414C39.614 34.5731 38.8342 31.9625 37.3752 29.7147C36.0802 27.7131 34.2938 26.0656 32.1812 24.9249C30.0687 23.7842 27.6983 23.187 25.2895 23.1886C22.881 23.1874 20.5111 23.7848 18.399 24.9255C16.287 26.0662 14.5009 27.7134 13.2061 29.7147C12.0885 28.9633 10.778 28.539 9.42606 28.4908C8.07409 28.4426 6.73588 28.7725 5.56617 29.4423C4.39645 30.1121 3.443 31.0945 2.81605 32.2759C2.18911 33.4573 1.91427 34.7895 2.02333 36.1184C4.88748 37.1112 7.93274 37.4939 10.9581 37.2414C10.9666 34.5733 11.7455 31.9628 13.2037 29.7147M32.4564 9.06287C32.4564 10.9361 31.7013 12.7325 30.3572 14.0571C29.0132 15.3816 27.1902 16.1257 25.2895 16.1257C23.3887 16.1257 21.5658 15.3816 20.2217 14.0571C18.8776 12.7325 18.1226 10.9361 18.1226 9.06287C18.1226 7.18968 18.8776 5.39321 20.2217 4.06867C21.5658 2.74412 23.3887 2 25.2895 2C27.1902 2 29.0132 2.74412 30.3572 4.06867C31.7013 5.39321 32.4564 7.18968 32.4564 9.06287ZM46.7901 16.1257C46.7901 16.8214 46.6511 17.5102 46.381 18.1529C46.1109 18.7956 45.7149 19.3795 45.2158 19.8714C44.7167 20.3633 44.1241 20.7535 43.472 21.0197C42.8198 21.2859 42.1209 21.4229 41.415 21.4229C40.7091 21.4229 40.0101 21.2859 39.358 21.0197C38.7058 20.7535 38.1133 20.3633 37.6142 19.8714C37.115 19.3795 36.7191 18.7956 36.449 18.1529C36.1788 17.5102 36.0398 16.8214 36.0398 16.1257C36.0398 14.7209 36.6061 13.3735 37.6142 12.3801C38.6222 11.3867 39.9894 10.8286 41.415 10.8286C42.8406 10.8286 44.2078 11.3867 45.2158 12.3801C46.2238 13.3735 46.7901 14.7209 46.7901 16.1257ZM14.5391 16.1257C14.5391 16.8214 14.4001 17.5102 14.13 18.1529C13.8598 18.7956 13.4639 19.3795 12.9648 19.8714C12.4656 20.3633 11.8731 20.7535 11.2209 21.0197C10.5688 21.2859 9.86982 21.4229 9.16394 21.4229C8.45807 21.4229 7.7591 21.2859 7.10696 21.0197C6.45481 20.7535 5.86225 20.3633 5.36312 19.8714C4.86399 19.3795 4.46806 18.7956 4.19793 18.1529C3.92781 17.5102 3.78877 16.8214 3.78877 16.1257C3.78877 14.7209 4.35508 13.3735 5.36312 12.3801C6.37116 11.3867 7.73836 10.8286 9.16394 10.8286C10.5895 10.8286 11.9567 11.3867 12.9648 12.3801C13.9728 13.3735 14.5391 14.7209 14.5391 16.1257Z" stroke="#26262E" stroke-width="4" stroke-linecap="round" stroke-linejoin="round"/>
</svg>
