<svg width="46" height="43" viewBox="0 0 46 43" fill="none" xmlns="http://www.w3.org/2000/svg">
<path d="M44.585 21.155L23.8795 0.459634C23.5832 0.165231 23.1824 0 22.7646 0C22.3469 0 21.9461 0.165231 21.6498 0.459634L0.944332 21.155C0.640661 21.4575 0.400665 21.8178 0.23851 22.2145C0.0763545 22.6113 -0.00467356 23.0365 0.000208158 23.4651C0.0202959 25.2328 1.49172 26.644 3.25945 26.644H5.39377V43.0005H40.1355V26.644H42.315C43.1738 26.644 43.9823 26.3075 44.59 25.6999C44.8892 25.4016 45.1263 25.047 45.2875 24.6565C45.4487 24.266 45.5308 23.8474 45.5291 23.425C45.5291 22.5712 45.1926 21.7627 44.585 21.155ZM25.5769 43.0005H19.9524V29.1399H25.5769V43.0005ZM36.5197 23.0282V39.3847H28.791V27.9347C28.791 26.8248 27.892 25.9259 26.7822 25.9259H18.7471C17.6372 25.9259 16.7383 26.8248 16.7383 27.9347V39.3847H9.00956V23.0282H4.1885L22.7697 4.46212L41.3458 23.0282H36.5197Z" fill="#26262E"/>
<path d="M36.5197 23.0282V39.3847H28.791V27.9347C28.791 26.8248 27.892 25.9259 26.7822 25.9259H18.7471C17.6372 25.9259 16.7383 26.8248 16.7383 27.9347V39.3847H9.00956V23.0282H4.1885L22.7697 4.46212L41.3458 23.0282H36.5197Z" fill="#26262E"/>
</svg>
