<svg width="36" height="45" viewBox="0 0 36 45" fill="none" xmlns="http://www.w3.org/2000/svg">
<path d="M25.4276 9.80991C25.4276 11.8812 24.6048 13.8677 23.1402 15.3323C21.6755 16.797 19.689 17.6198 17.6177 17.6198C15.5464 17.6198 13.5599 16.797 12.0953 15.3323C10.6307 13.8677 9.80782 11.8812 9.80782 9.80991C9.80782 7.73859 10.6307 5.75211 12.0953 4.28747C13.5599 2.82283 15.5464 2 17.6177 2C19.689 2 21.6755 2.82283 23.1402 4.28747C24.6048 5.75211 25.4276 7.73859 25.4276 9.80991ZM2 39.2126C2.06693 35.1147 3.74179 31.2073 6.6634 28.333C9.58502 25.4587 13.5193 23.8479 17.6177 23.8479C21.7162 23.8479 25.6504 25.4587 28.5721 28.333C31.4937 31.2073 33.1685 35.1147 33.2355 39.2126C28.3358 41.4593 23.0079 42.6188 17.6177 42.6115C12.0446 42.6115 6.75467 41.3953 2 39.2126Z" fill="#26262E" stroke="#26262E" stroke-width="4" stroke-linecap="round" stroke-linejoin="round"/>
</svg>
