<svg width="44" height="44" viewBox="0 0 44 44" fill="none" xmlns="http://www.w3.org/2000/svg">
<path d="M41.4835 41.4835L32.1612 32.1446M32.1612 32.1446C35.4686 28.8328 37.3273 24.3444 37.3273 19.6637M32.1612 32.1446L32.1575 32.1492M37.3273 19.6637C37.3273 14.979 35.4663 10.4861 32.1537 7.17356C28.8412 3.86099 24.3483 2 19.6637 2C14.979 2 10.4861 3.86099 7.17356 7.17356C3.86099 10.4861 2 14.979 2 19.6637C2 24.3483 3.86099 28.8412 7.17356 32.1537C10.4861 35.4663 14.979 37.3273 19.6637 37.3273C24.3483 37.3273 28.8412 35.4663 32.1537 32.1537L32.1575 32.1492M37.3273 19.6637C37.3273 24.3464 35.4675 28.837 32.1575 32.1492" stroke="#26262E" stroke-width="4" stroke-linecap="round"/>
</svg>
