<svg width="21" height="22" viewBox="0 0 21 22" fill="none" xmlns="http://www.w3.org/2000/svg">
<path d="M17.1961 15.2658C16.3964 15.2658 15.6584 15.5464 15.0803 16.015L9.26601 11.8087C9.36337 11.2743 9.36337 10.7267 9.26601 10.1923L15.0803 5.98595C15.6584 6.45457 16.3964 6.73518 17.1961 6.73518C19.0538 6.73518 20.5635 5.22549 20.5635 3.36784C20.5635 1.51018 19.0538 0.000488281 17.1961 0.000488281C15.3385 0.000488281 13.8288 1.51018 13.8288 3.36784C13.8288 3.69335 13.8737 4.00482 13.9607 4.30227L8.4382 8.301C7.61881 7.21503 6.31677 6.51069 4.84917 6.51069C2.36856 6.51069 0.359375 8.51988 0.359375 11.0005C0.359375 13.4811 2.36856 15.4903 4.84917 15.4903C6.31677 15.4903 7.61881 14.7859 8.4382 13.7L13.9607 17.6987C13.8737 17.9962 13.8288 18.3104 13.8288 18.6331C13.8288 20.4908 15.3385 22.0005 17.1961 22.0005C19.0538 22.0005 20.5635 20.4908 20.5635 18.6331C20.5635 16.7755 19.0538 15.2658 17.1961 15.2658ZM17.1961 1.90865C18.0015 1.90865 18.6553 2.56248 18.6553 3.36784C18.6553 4.17319 18.0015 4.82702 17.1961 4.82702C16.3908 4.82702 15.7369 4.17319 15.7369 3.36784C15.7369 2.56248 16.3908 1.90865 17.1961 1.90865ZM4.84917 13.4699C3.4882 13.4699 2.37978 12.3615 2.37978 11.0005C2.37978 9.63952 3.4882 8.5311 4.84917 8.5311C6.21014 8.5311 7.31856 9.63952 7.31856 11.0005C7.31856 12.3615 6.21014 13.4699 4.84917 13.4699ZM17.1961 20.0923C16.3908 20.0923 15.7369 19.4385 15.7369 18.6331C15.7369 17.8278 16.3908 17.174 17.1961 17.174C18.0015 17.174 18.6553 17.8278 18.6553 18.6331C18.6553 19.4385 18.0015 20.0923 17.1961 20.0923Z" fill="#26262E"/>
</svg>
