<svg width="229" height="80" viewBox="0 0 229 80" fill="none" xmlns="http://www.w3.org/2000/svg">
<path d="M137.34 29.5706C143.727 29.5706 147.215 35.0366 147.215 40.4867C147.215 45.9408 143.723 51.4069 137.34 51.4069C130.957 51.4069 127.121 45.9408 127.121 40.4867C127.121 35.0366 130.957 29.5706 137.34 29.5706ZM39.6352 29.5706C33.2561 29.5706 29.4158 35.0366 29.4158 40.4867C29.4158 45.9408 33.2561 51.4069 39.6352 51.4069C46.0183 51.4069 49.5102 45.9408 49.5102 40.4867C49.5102 35.0366 46.0183 29.5706 39.6352 29.5706ZM228.309 25.6782V79.9907H25.1711C11.5359 79.9907 0.483643 68.9384 0.483643 55.3072V0.990723H147.563V23.3837C144.656 21.7018 141.284 20.7407 137.688 20.7407C126.78 20.7407 117.938 29.5826 117.938 40.4907C117.938 51.3989 126.78 60.2447 137.688 60.2447C142.137 60.2447 146.242 58.7751 149.542 56.2923C151.344 58.691 154.211 60.2447 157.442 60.2447V0.990723H203.622C217.257 0.990723 228.309 12.043 228.309 25.6782ZM59.7376 20.7407C56.506 20.7407 53.6388 22.2904 51.8368 24.6891C48.5331 22.2104 44.4286 20.7407 39.9836 20.7407C29.0755 20.7407 20.2336 29.5826 20.2336 40.4907C20.2336 51.3989 29.0755 60.2447 39.9836 60.2447C44.4286 60.2447 48.5331 58.7751 51.8368 56.2923C52.1171 56.6647 52.4215 57.0171 52.7538 57.3495C54.5398 59.1395 57.0106 60.2447 59.7376 60.2447V20.7407ZM109.113 20.9129H99.2336V40.6629C99.2336 46.117 95.7417 51.5831 89.3586 51.5831C82.9755 51.5831 79.1392 46.117 79.1392 40.6629V30.0951C79.1392 28.0328 78.5305 26.1147 77.4854 24.537C75.7714 21.93 72.8842 20.2201 69.6126 20.2201V40.6669C69.6126 51.5791 78.4544 60.4209 89.3626 60.4209C93.8075 60.4209 97.9161 58.9513 101.216 56.4685C103.014 58.8672 105.885 60.4209 109.117 60.4209V20.9129H109.113ZM208.559 40.4947C208.559 29.5826 199.717 20.7407 188.809 20.7407C184.364 20.7407 180.256 22.2104 176.956 24.6931C175.158 22.2945 172.287 20.7407 169.055 20.7407V60.2447H178.93V40.4947C178.93 35.0407 182.422 29.5746 188.805 29.5746C195.188 29.5746 199.025 35.0407 199.025 40.4947V51.0625C199.025 53.1248 199.633 55.0429 200.678 56.6207C202.392 59.2276 205.28 60.9375 208.551 60.9375V40.4947H208.559Z" fill="#26262E"/>
</svg>
