<svg width="257" height="90" viewBox="0 0 257 90" fill="none" xmlns="http://www.w3.org/2000/svg">
<path d="M154.244 33.1858C161.44 33.1858 165.369 39.3438 165.369 45.4838C165.369 51.6282 161.435 57.7862 154.244 57.7862C147.053 57.7862 142.731 51.6282 142.731 45.4838C142.731 39.3438 147.053 33.1858 154.244 33.1858ZM44.1717 33.1858C36.9851 33.1858 32.6587 39.3438 32.6587 45.4838C32.6587 51.6282 36.9851 57.7862 44.1717 57.7862C51.3628 57.7862 55.2967 51.6282 55.2967 45.4838C55.2967 39.3438 51.3628 33.1858 44.1717 33.1858ZM256.729 28.8008V89.9883H27.8767C12.5155 89.9883 0.064209 77.5369 0.064209 62.1803V0.988281H165.762V26.2158C162.486 24.321 158.688 23.2383 154.637 23.2383C142.348 23.2383 132.387 33.1994 132.387 45.4883C132.387 57.7772 142.348 67.7428 154.637 67.7428C159.649 67.7428 164.273 66.0871 167.99 63.2901C170.02 65.9924 173.251 67.7428 176.891 67.7428V0.988281H228.916C244.277 0.988281 256.729 13.4396 256.729 28.8008ZM66.8187 23.2383C63.178 23.2383 59.9479 24.9842 57.9178 27.6865C54.1959 24.8939 49.5718 23.2383 44.5642 23.2383C32.2753 23.2383 22.3142 33.1994 22.3142 45.4883C22.3142 57.7772 32.2753 67.7428 44.5642 67.7428C49.5718 67.7428 54.1959 66.0871 57.9178 63.2901C58.2336 63.7096 58.5765 64.1066 58.9509 64.4811C60.963 66.4977 63.7465 67.7428 66.8187 67.7428V23.2383ZM122.444 23.4323H111.314V45.6823C111.314 51.8267 107.38 57.9847 100.189 57.9847C92.9981 57.9847 88.6762 51.8267 88.6762 45.6823V33.7768C88.6762 31.4535 87.9905 29.2925 86.813 27.515C84.8822 24.5782 81.6295 22.6518 77.9437 22.6518V45.6868C77.9437 57.9802 87.9048 67.9413 100.194 67.9413C105.201 67.9413 109.83 66.2856 113.547 63.4886C115.573 66.1909 118.808 67.9413 122.448 67.9413V23.4323H122.444ZM234.479 45.4928C234.479 33.1994 224.518 23.2383 212.229 23.2383C207.221 23.2383 202.592 24.8939 198.875 27.691C196.849 24.9887 193.615 23.2383 189.974 23.2383V67.7428H201.099V45.4928C201.099 39.3483 205.033 33.1903 212.224 33.1903C219.415 33.1903 223.737 39.3483 223.737 45.4928V57.3983C223.737 59.7216 224.423 61.8825 225.6 63.66C227.531 66.5969 230.784 68.5233 234.47 68.5233V45.4928H234.479Z" fill="#26262E"/>
</svg>
