<svg width="303" height="105" viewBox="0 0 303 105" fill="none" xmlns="http://www.w3.org/2000/svg">
<path d="M181.89 37.9842C190.379 37.9842 195.014 45.2489 195.014 52.4924C195.014 59.7411 190.373 67.0059 181.89 67.0059C173.406 67.0059 168.308 59.7411 168.308 52.4924C168.308 45.2489 173.406 37.9842 181.89 37.9842ZM52.0347 37.9842C43.5565 37.9842 38.4525 45.2489 38.4525 52.4924C38.4525 59.7411 43.5565 67.0059 52.0347 67.0059C60.5182 67.0059 65.1591 59.7411 65.1591 52.4924C65.1591 45.2489 60.5182 37.9842 52.0347 37.9842ZM302.793 32.8111V104.995H32.8111C14.6891 104.995 0 90.3062 0 72.1896V0H195.477V29.7615C191.613 27.5262 187.132 26.2488 182.353 26.2488C167.855 26.2488 156.104 38.0001 156.104 52.4977C156.104 66.9952 167.855 78.7519 182.353 78.7519C188.266 78.7519 193.721 76.7986 198.106 73.4989C200.501 76.6869 204.312 78.7519 208.607 78.7519V0H269.982C288.104 0 302.793 14.6891 302.793 32.8111ZM78.7519 26.2488C74.4569 26.2488 70.6462 28.3085 68.2513 31.4965C63.8605 28.2021 58.4053 26.2488 52.4977 26.2488C38.0001 26.2488 26.2488 38.0001 26.2488 52.4977C26.2488 66.9952 38.0001 78.7519 52.4977 78.7519C58.4053 78.7519 63.8605 76.7986 68.2513 73.4989C68.6238 73.9939 69.0283 74.4622 69.47 74.9039C71.8437 77.2829 75.1275 78.7519 78.7519 78.7519V26.2488ZM144.374 26.4777H131.244V52.7265C131.244 59.9753 126.603 67.24 118.12 67.24C109.636 67.24 104.538 59.9753 104.538 52.7265V38.6814C104.538 35.9405 103.729 33.3912 102.34 31.2942C100.062 27.8295 96.2245 25.557 91.8763 25.557V52.7319C91.8763 67.2347 103.628 78.986 118.125 78.986C124.033 78.986 129.493 77.0328 133.879 73.7331C136.268 76.921 140.084 78.986 144.379 78.986V26.4777H144.374ZM276.544 52.503C276.544 38.0001 264.793 26.2488 250.295 26.2488C244.388 26.2488 238.927 28.2021 234.542 31.5018C232.152 28.3138 228.336 26.2488 224.041 26.2488V78.7519H237.166V52.503C237.166 45.2542 241.807 37.9895 250.29 37.9895C258.774 37.9895 263.872 45.2542 263.872 52.503V66.5482C263.872 69.2891 264.681 71.8384 266.07 73.9353C268.348 77.4 272.185 79.6726 276.534 79.6726V52.503H276.544Z" fill="#26262E"/>
</svg>