<svg width="20" height="24" viewBox="0 0 20 24" fill="none" xmlns="http://www.w3.org/2000/svg">
<path d="M14.574 0.51151C14.5251 0.456885 12.7642 0.533072 11.2318 2.19625C9.69948 3.85799 9.93523 5.76411 9.96973 5.81298C10.0042 5.86186 12.1547 5.93804 13.5275 4.00462C14.9003 2.07119 14.6229 0.567572 14.574 0.51151ZM19.3379 17.3776C19.2689 17.2396 15.9957 15.6037 16.3004 12.4585C16.6052 9.31184 18.7082 8.44934 18.7413 8.35591C18.7744 8.26247 17.8831 7.22029 16.9387 6.69273C16.2453 6.32078 15.4778 6.10768 14.6919 6.06886C14.5366 6.06454 13.9976 5.93229 12.8893 6.23561C12.159 6.43542 10.5131 7.08229 10.0603 7.10816C9.60604 7.13404 8.2548 6.35779 6.80149 6.15223C5.87144 5.97254 4.88532 6.34054 4.17951 6.62373C3.47514 6.90548 2.13539 7.7076 1.19815 9.8394C0.260902 11.9698 0.751087 15.345 1.10183 16.3944C1.45258 17.4423 2.00027 19.1601 2.93176 20.4136C3.75976 21.8281 4.858 22.8099 5.31656 23.1434C5.77512 23.4769 7.06887 23.6983 7.96586 23.2397C8.68748 22.797 9.98985 22.5425 10.5045 22.5612C11.0177 22.5799 12.0297 22.7826 13.0661 23.336C13.8869 23.6192 14.6631 23.5013 15.4408 23.1851C16.2185 22.8674 17.3441 21.6628 18.6579 19.2205C19.1567 18.0849 19.3839 17.471 19.3379 17.3776Z" fill="#26262E"/>
</svg>
