<svg width="22" height="22" viewBox="0 0 22 22" fill="none" xmlns="http://www.w3.org/2000/svg">
<path d="M21.0867 9.03098C21.2179 9.7339 21.2893 10.4688 21.2893 11.2357C21.2893 17.2345 17.2745 21.5 11.2107 21.5C9.83166 21.5004 8.4661 21.2291 7.19199 20.7016C5.91788 20.1741 4.7602 19.4007 3.7851 18.4256C2.81001 17.4505 2.0366 16.2928 1.50907 15.0187C0.981546 13.7446 0.710243 12.379 0.710663 11C0.710243 9.621 0.981546 8.25543 1.50907 6.98133C2.0366 5.70722 2.81001 4.54954 3.7851 3.57444C4.7602 2.59934 5.91788 1.82593 7.19199 1.29841C8.4661 0.770884 9.83166 0.49958 11.2107 0.5C14.0458 0.5 16.4148 1.54317 18.2324 3.237L15.2724 6.19692V6.18946C14.1706 5.13988 12.7722 4.60123 11.2107 4.60123C7.74622 4.60123 4.93029 7.52809 4.93029 10.9936C4.93029 14.458 7.74622 17.3913 11.2107 17.3913C14.354 17.3913 16.4937 15.594 16.9332 13.1258H11.2107V9.03098H21.0877H21.0867Z" fill="#26262E"/>
</svg>
